<?xml version="1.0" encoding="UTF-8"?><svg xmlns="http://www.w3.org/2000/svg" xmlns:xlink="http://www.w3.org/1999/xlink" contentScriptType="text/ecmascript" width="159.75pt" zoomAndPan="magnify" contentStyleType="text/css" viewBox="0 0 159.75 48.75" height="48.75pt" preserveAspectRatio="xMidYMid meet" version="1.2"><defs><g/><clipPath xml:id="clip1" id="clip1"><path d="M 0.28125 6 L 159.21875 6 L 159.21875 48.5 L 0.28125 48.5 Z M 0.28125 6 "/></clipPath></defs><g xml:id="surface1" id="surface1"><g clip-rule="nonzero" clip-path="url(#clip1)"><g style="fill:rgb(0%,0%,0%);fill-opacity:1;"><g transform="translate(11.214824, 35.873608)"><path style="stroke:none;" d="M 8.921875 -23.5 C 9.046875 -23.5 9.160156 -23.457031 9.265625 -23.375 C 9.367188 -23.289062 9.425781 -23.191406 9.4375 -23.078125 C 9.445312 -22.867188 9.441406 -22.660156 9.421875 -22.453125 C 9.398438 -22.242188 9.367188 -22.046875 9.328125 -21.859375 C 9.316406 -21.773438 9.3125 -21.695312 9.3125 -21.625 C 8.800781 -19.300781 8.160156 -17.03125 7.390625 -14.8125 C 7.316406 -14.5625 7.28125 -14.304688 7.28125 -14.046875 C 7.3125 -13.734375 7.253906 -13.441406 7.109375 -13.171875 C 6.785156 -12.691406 6.523438 -12.191406 6.328125 -11.671875 C 5.015625 -7.921875 3.601562 -4.222656 2.09375 -0.578125 C 0.820312 2.554688 -0.609375 5.613281 -2.203125 8.59375 C -2.648438 9.382812 -3.117188 10.160156 -3.609375 10.921875 C -3.859375 11.253906 -4.132812 11.5625 -4.4375 11.84375 C -4.707031 12.070312 -5.019531 12.140625 -5.375 12.046875 C -5.738281 11.953125 -5.914062 11.710938 -5.90625 11.328125 C -5.863281 10.878906 -5.765625 10.441406 -5.609375 10.015625 C -4.679688 7.453125 -3.65625 4.9375 -2.53125 2.46875 C -0.46875 -2.226562 1.925781 -6.738281 4.65625 -11.0625 C 5.15625 -11.894531 5.539062 -12.753906 5.8125 -13.640625 C 6.289062 -15.097656 6.742188 -16.554688 7.171875 -18.015625 C 7.597656 -19.484375 7.96875 -20.960938 8.28125 -22.453125 C 8.320312 -22.691406 8.378906 -22.9375 8.453125 -23.1875 C 8.535156 -23.394531 8.691406 -23.5 8.921875 -23.5 Z M -3.875 9.328125 C -2.550781 6.910156 -1.34375 4.445312 -0.25 1.9375 C 0.832031 -0.570312 1.828125 -3.128906 2.734375 -5.734375 C 2.722656 -5.722656 2.710938 -5.695312 2.703125 -5.65625 C 2.648438 -5.632812 2.601562 -5.601562 2.5625 -5.5625 C 2.46875 -5.375 2.367188 -5.191406 2.265625 -5.015625 C 1.066406 -2.804688 -0.0351562 -0.550781 -1.046875 1.75 C -2.066406 4.0625 -3.039062 6.378906 -3.96875 8.703125 C -3.976562 8.734375 -3.984375 8.757812 -3.984375 8.78125 C -4.023438 8.84375 -4.046875 8.921875 -4.046875 9.015625 C -4.046875 9.109375 -3.988281 9.210938 -3.875 9.328125 Z M 51.484375 -24.03125 C 51.484375 -23.976562 51.453125 -23.921875 51.390625 -23.859375 C 51.335938 -23.804688 51.273438 -23.765625 51.203125 -23.734375 C 51.140625 -23.703125 51.078125 -23.703125 51.015625 -23.734375 C 50.648438 -23.960938 50.257812 -24.113281 49.84375 -24.1875 C 49.425781 -24.269531 49.007812 -24.332031 48.59375 -24.375 C 48.289062 -24.382812 47.988281 -24.421875 47.6875 -24.484375 C 46.570312 -24.648438 45.460938 -24.789062 44.359375 -24.90625 C 40.703125 -25.207031 37.039062 -25.367188 33.375 -25.390625 C 29.832031 -25.441406 26.289062 -25.363281 22.75 -25.15625 C 18.75 -24.957031 14.757812 -24.660156 10.78125 -24.265625 C 7.125 -23.941406 3.472656 -23.546875 -0.171875 -23.078125 C -0.390625 -23.046875 -0.625 -23.015625 -0.875 -22.984375 C -2.257812 -22.796875 -3.644531 -22.59375 -5.03125 -22.375 C -6.425781 -22.164062 -7.8125 -21.910156 -9.1875 -21.609375 C -9.300781 -21.578125 -9.414062 -21.546875 -9.53125 -21.515625 C -10.070312 -21.390625 -10.613281 -21.25 -11.15625 -21.09375 C -11.695312 -20.9375 -12.21875 -20.726562 -12.71875 -20.46875 C -12.78125 -20.425781 -12.859375 -20.398438 -12.953125 -20.390625 C -13.054688 -20.367188 -13.15625 -20.367188 -13.25 -20.390625 C -13.351562 -20.421875 -13.4375 -20.484375 -13.5 -20.578125 C -13.550781 -20.679688 -13.554688 -20.773438 -13.515625 -20.859375 C -13.472656 -20.953125 -13.398438 -21.03125 -13.296875 -21.09375 C -12.972656 -21.257812 -12.632812 -21.40625 -12.28125 -21.53125 C -11.394531 -21.832031 -10.5 -22.085938 -9.59375 -22.296875 C -8.695312 -22.503906 -7.796875 -22.6875 -6.890625 -22.84375 C -4.253906 -23.28125 -1.625 -23.664062 1 -24 C 3.632812 -24.332031 6.28125 -24.628906 8.9375 -24.890625 C 12.664062 -25.273438 16.398438 -25.578125 20.140625 -25.796875 C 23.398438 -26.015625 26.660156 -26.140625 29.921875 -26.171875 C 32.304688 -26.191406 34.691406 -26.164062 37.078125 -26.09375 C 39.472656 -26.03125 41.863281 -25.890625 44.25 -25.671875 C 46.425781 -25.453125 48.585938 -25.117188 50.734375 -24.671875 C 50.929688 -24.628906 51.113281 -24.5625 51.28125 -24.46875 C 51.425781 -24.363281 51.492188 -24.21875 51.484375 -24.03125 Z M 51.484375 -24.03125 "/></g><g transform="translate(18.322931, 35.873608)"><path style="stroke:none;" d="M 7.875 -4.515625 C 7.757812 -4.410156 7.632812 -4.316406 7.5 -4.234375 C 7.09375 -3.972656 6.722656 -3.769531 6.390625 -3.625 C 6.054688 -3.476562 5.660156 -3.328125 5.203125 -3.171875 C 4.535156 -2.972656 4.101562 -3.019531 3.90625 -3.3125 C 3.71875 -3.601562 3.691406 -4.003906 3.828125 -4.515625 C 4.003906 -5.253906 4.101562 -5.796875 4.125 -6.140625 C 4.15625 -6.484375 4.039062 -6.597656 3.78125 -6.484375 C 3.53125 -6.378906 3.070312 -6.03125 2.40625 -5.4375 C 1.46875 -4.625 0.664062 -3.695312 0 -2.65625 C -0.0820312 -2.507812 -0.1875 -2.390625 -0.3125 -2.296875 C -0.4375 -2.210938 -0.585938 -2.171875 -0.765625 -2.171875 C -0.941406 -2.171875 -1.066406 -2.210938 -1.140625 -2.296875 C -1.222656 -2.390625 -1.226562 -2.515625 -1.15625 -2.671875 C -0.769531 -3.515625 -0.378906 -4.347656 0.015625 -5.171875 C 0.703125 -6.609375 1.378906 -8.039062 2.046875 -9.46875 C 2.546875 -10.53125 3.035156 -11.597656 3.515625 -12.671875 C 3.816406 -13.296875 4.109375 -13.921875 4.390625 -14.546875 C 4.421875 -14.597656 4.453125 -14.648438 4.484375 -14.703125 C 4.503906 -14.773438 4.53125 -14.847656 4.5625 -14.921875 C 4.601562 -14.992188 4.644531 -15.070312 4.6875 -15.15625 C 4.726562 -15.226562 4.800781 -15.285156 4.90625 -15.328125 C 5.019531 -15.378906 5.128906 -15.410156 5.234375 -15.421875 C 5.335938 -15.429688 5.421875 -15.425781 5.484375 -15.40625 C 5.566406 -15.34375 5.613281 -15.28125 5.625 -15.21875 C 5.632812 -15.15625 5.617188 -15.085938 5.578125 -15.015625 C 5.566406 -14.992188 5.5625 -14.96875 5.5625 -14.9375 C 5.4375 -14.5625 5.300781 -14.195312 5.15625 -13.84375 C 4.332031 -11.863281 3.4375 -9.910156 2.46875 -7.984375 C 2.394531 -7.859375 2.3125 -7.707031 2.21875 -7.53125 C 2.070312 -7.269531 1.9375 -7.015625 1.8125 -6.765625 C 1.695312 -6.515625 1.660156 -6.347656 1.703125 -6.265625 C 1.742188 -6.179688 1.9375 -6.242188 2.28125 -6.453125 C 2.382812 -6.523438 2.476562 -6.597656 2.5625 -6.671875 C 2.832031 -6.847656 3.097656 -7.019531 3.359375 -7.1875 C 3.597656 -7.34375 3.859375 -7.425781 4.140625 -7.4375 C 4.816406 -7.476562 5.195312 -7.171875 5.28125 -6.515625 C 5.3125 -6.253906 5.300781 -5.992188 5.25 -5.734375 C 5.195312 -5.472656 5.140625 -5.21875 5.078125 -4.96875 C 5.054688 -4.894531 5.039062 -4.820312 5.03125 -4.75 C 4.914062 -4.3125 4.945312 -4.054688 5.125 -3.984375 C 5.300781 -3.921875 5.546875 -3.957031 5.859375 -4.09375 C 6.179688 -4.238281 6.507812 -4.40625 6.84375 -4.59375 C 7.070312 -4.707031 7.269531 -4.804688 7.4375 -4.890625 C 7.613281 -4.972656 7.742188 -5.007812 7.828125 -5 C 7.984375 -4.976562 8.050781 -4.914062 8.03125 -4.8125 C 8.019531 -4.71875 7.96875 -4.617188 7.875 -4.515625 Z M 7.875 -4.515625 "/></g><g transform="translate(25.721957, 35.873608)"><path style="stroke:none;" d="M 5.53125 -3.71875 C 5.15625 -3.351562 4.71875 -3.039062 4.21875 -2.78125 C 3.71875 -2.519531 3.300781 -2.347656 2.96875 -2.265625 C 2.632812 -2.179688 2.289062 -2.132812 1.9375 -2.125 C 1.363281 -2.09375 0.835938 -2.171875 0.359375 -2.359375 C -0.421875 -2.671875 -0.691406 -3.273438 -0.453125 -4.171875 C -0.222656 -4.941406 0.234375 -5.539062 0.921875 -5.96875 C 1.609375 -6.40625 2.320312 -6.617188 3.0625 -6.609375 C 3.0625 -6.609375 3.066406 -6.609375 3.078125 -6.609375 C 3.265625 -6.617188 3.441406 -6.601562 3.609375 -6.5625 C 3.898438 -6.457031 4.082031 -6.289062 4.15625 -6.0625 C 4.238281 -5.832031 4.1875 -5.570312 4 -5.28125 C 3.59375 -4.65625 3.03125 -4.304688 2.3125 -4.234375 C 1.84375 -4.191406 1.390625 -4.21875 0.953125 -4.3125 C 0.867188 -4.320312 0.789062 -4.296875 0.71875 -4.234375 C 0.65625 -4.179688 0.617188 -4.113281 0.609375 -4.03125 C 0.484375 -3.46875 0.65625 -3.109375 1.125 -2.953125 C 1.707031 -2.753906 2.3125 -2.753906 2.9375 -2.953125 C 3.664062 -3.179688 4.351562 -3.609375 5 -4.234375 C 5.65625 -4.859375 6.03125 -5.148438 6.125 -5.109375 C 6.226562 -5.066406 6.257812 -4.945312 6.21875 -4.75 C 6.132812 -4.4375 5.90625 -4.09375 5.53125 -3.71875 Z M 1.390625 -5.28125 C 1.359375 -5.238281 1.332031 -5.1875 1.3125 -5.125 C 1.300781 -5.070312 1.320312 -5.023438 1.375 -4.984375 C 1.601562 -4.859375 1.847656 -4.8125 2.109375 -4.84375 C 2.378906 -4.875 2.601562 -4.972656 2.78125 -5.140625 C 2.96875 -5.304688 3.050781 -5.507812 3.03125 -5.75 C 3.007812 -5.832031 2.960938 -5.882812 2.890625 -5.90625 C 2.816406 -5.925781 2.742188 -5.929688 2.671875 -5.921875 C 2.191406 -5.835938 1.765625 -5.625 1.390625 -5.28125 Z M 1.390625 -5.28125 "/></g><g transform="translate(31.365775, 35.873608)"><path style="stroke:none;" d=""/></g><g transform="translate(38.69692, 35.873608)"><path style="stroke:none;" d="M 54.125 -25.375 C 53.957031 -25.332031 53.804688 -25.335938 53.671875 -25.390625 C 53.535156 -25.441406 53.410156 -25.503906 53.296875 -25.578125 C 53.234375 -25.597656 53.1875 -25.625 53.15625 -25.65625 C 51.5 -26.550781 49.75 -27.222656 47.90625 -27.671875 C 43.09375 -28.816406 38.191406 -28.335938 33.203125 -26.234375 C 31.378906 -25.460938 29.628906 -24.535156 27.953125 -23.453125 C 26.285156 -22.378906 24.65625 -21.203125 23.0625 -19.921875 C 20.507812 -17.847656 18.15625 -15.570312 16 -13.09375 C 13.84375 -10.625 11.851562 -7.992188 10.03125 -5.203125 C 9.375 -4.203125 8.742188 -3.191406 8.140625 -2.171875 C 8.117188 -2.140625 8.101562 -2.109375 8.09375 -2.078125 C 7.625 -1.359375 7.238281 -0.59375 6.9375 0.21875 C 6.800781 0.601562 6.625 0.96875 6.40625 1.3125 C 6.144531 1.757812 5.789062 1.929688 5.34375 1.828125 C 5.082031 1.765625 4.972656 1.597656 5.015625 1.328125 C 5.046875 1.128906 5.109375 0.9375 5.203125 0.75 C 5.691406 -0.195312 6.117188 -1.160156 6.484375 -2.140625 C 6.859375 -3.117188 7.207031 -4.109375 7.53125 -5.109375 C 7.613281 -5.367188 7.703125 -5.617188 7.796875 -5.859375 C 9.742188 -11.554688 11.546875 -17.296875 13.203125 -23.078125 C 13.234375 -23.203125 13.257812 -23.328125 13.28125 -23.453125 C 13.28125 -23.515625 13.285156 -23.582031 13.296875 -23.65625 C 13.140625 -23.632812 13.019531 -23.582031 12.9375 -23.5 C 12.851562 -23.414062 12.78125 -23.316406 12.71875 -23.203125 C 12.707031 -23.160156 12.6875 -23.117188 12.65625 -23.078125 C 12.5625 -22.929688 12.472656 -22.78125 12.390625 -22.625 C 11.441406 -21.144531 10.5 -19.660156 9.5625 -18.171875 C 8.101562 -15.773438 6.640625 -13.382812 5.171875 -11 C 3.046875 -7.539062 0.910156 -4.078125 -1.234375 -0.609375 C -1.703125 0.160156 -2.195312 0.90625 -2.71875 1.625 C -2.851562 1.8125 -2.972656 1.988281 -3.078125 2.15625 C -3.285156 2.488281 -3.566406 2.691406 -3.921875 2.765625 C -4.023438 2.773438 -4.117188 2.769531 -4.203125 2.75 C -4.285156 2.726562 -4.335938 2.675781 -4.359375 2.59375 C -4.390625 2.53125 -4.390625 2.457031 -4.359375 2.375 C -4.335938 2.300781 -4.300781 2.238281 -4.25 2.1875 C 0.863281 -6.195312 5.992188 -14.566406 11.140625 -22.921875 C 11.609375 -23.660156 12.109375 -24.390625 12.640625 -25.109375 C 12.753906 -25.265625 12.859375 -25.421875 12.953125 -25.578125 C 13.253906 -26.015625 13.644531 -26.296875 14.125 -26.421875 C 14.425781 -26.484375 14.660156 -26.441406 14.828125 -26.296875 C 15.003906 -26.148438 15.082031 -25.921875 15.0625 -25.609375 C 14.976562 -24.679688 14.796875 -23.765625 14.515625 -22.859375 C 13.109375 -17.992188 11.597656 -13.160156 9.984375 -8.359375 C 9.972656 -8.296875 9.957031 -8.242188 9.9375 -8.203125 C 9.875 -8.054688 9.832031 -7.910156 9.8125 -7.765625 C 9.789062 -7.628906 9.820312 -7.476562 9.90625 -7.3125 C 10.019531 -7.46875 10.132812 -7.613281 10.25 -7.75 C 10.488281 -8.050781 10.710938 -8.351562 10.921875 -8.65625 C 13.460938 -12.238281 16.351562 -15.488281 19.59375 -18.40625 C 21.445312 -20.082031 23.375 -21.625 25.375 -23.03125 C 27.382812 -24.445312 29.488281 -25.660156 31.6875 -26.671875 C 36.238281 -28.710938 40.8125 -29.472656 45.40625 -28.953125 C 48.300781 -28.585938 51.003906 -27.742188 53.515625 -26.421875 C 53.566406 -26.398438 53.628906 -26.375 53.703125 -26.34375 C 53.828125 -26.28125 53.945312 -26.210938 54.0625 -26.140625 C 54.175781 -26.066406 54.269531 -25.960938 54.34375 -25.828125 C 54.351562 -25.796875 54.359375 -25.753906 54.359375 -25.703125 C 54.359375 -25.660156 54.351562 -25.617188 54.34375 -25.578125 C 54.3125 -25.523438 54.28125 -25.476562 54.25 -25.4375 C 54.21875 -25.40625 54.175781 -25.382812 54.125 -25.375 Z M 54.125 -25.375 "/></g><g transform="translate(52.757978, 35.873608)"><path style="stroke:none;" d="M 1.546875 -2.296875 L 1.515625 -2.296875 C 0.578125 -2.304688 -0.0351562 -2.515625 -0.328125 -2.921875 C -0.628906 -3.328125 -0.617188 -3.863281 -0.296875 -4.53125 C -0.0234375 -5.039062 0.316406 -5.488281 0.734375 -5.875 C 0.867188 -6 1.007812 -6.097656 1.15625 -6.171875 C 1.3125 -6.253906 1.484375 -6.296875 1.671875 -6.296875 C 1.773438 -6.316406 1.898438 -6.300781 2.046875 -6.25 C 2.085938 -6.226562 2.132812 -6.210938 2.1875 -6.203125 C 2.289062 -6.210938 2.394531 -6.242188 2.5 -6.296875 C 2.53125 -6.316406 2.566406 -6.332031 2.609375 -6.34375 C 2.816406 -6.4375 3.039062 -6.472656 3.28125 -6.453125 C 3.382812 -6.453125 3.488281 -6.453125 3.59375 -6.453125 C 3.96875 -6.398438 4.25 -6.238281 4.4375 -5.96875 C 4.632812 -5.707031 4.707031 -5.390625 4.65625 -5.015625 C 4.625 -4.796875 4.550781 -4.585938 4.4375 -4.390625 C 3.695312 -3.054688 2.75 -2.359375 1.59375 -2.296875 Z M 3.078125 -5.765625 C 2.566406 -5.785156 2.109375 -5.640625 1.703125 -5.328125 C 1.304688 -5.015625 1.007812 -4.65625 0.8125 -4.25 C 0.625 -3.84375 0.570312 -3.503906 0.65625 -3.234375 C 0.75 -2.972656 1.019531 -2.90625 1.46875 -3.03125 C 1.976562 -3.1875 2.425781 -3.472656 2.8125 -3.890625 C 3.207031 -4.316406 3.445312 -4.722656 3.53125 -5.109375 C 3.625 -5.492188 3.472656 -5.710938 3.078125 -5.765625 Z M 3.078125 -5.765625 "/></g><g transform="translate(57.907234, 35.873608)"><path style="stroke:none;" d="M 6.0625 -4.6875 C 5.195312 -3.664062 4.347656 -2.910156 3.515625 -2.421875 C 2.679688 -1.941406 1.789062 -1.78125 0.84375 -1.9375 C -0.101562 -2.101562 -0.488281 -2.738281 -0.3125 -3.84375 C -0.195312 -4.40625 -0.0390625 -4.953125 0.15625 -5.484375 C 0.65625 -6.710938 1.160156 -7.9375 1.671875 -9.15625 C 1.835938 -9.601562 2.015625 -10.046875 2.203125 -10.484375 C 2.242188 -10.585938 2.285156 -10.6875 2.328125 -10.78125 C 2.398438 -10.945312 2.472656 -11.113281 2.546875 -11.28125 C 2.648438 -11.5625 2.535156 -11.707031 2.203125 -11.71875 C 2.015625 -11.71875 1.832031 -11.71875 1.65625 -11.71875 C 1.5625 -11.71875 1.46875 -11.71875 1.375 -11.71875 C 1.269531 -11.707031 1.164062 -11.695312 1.0625 -11.6875 C 0.894531 -11.675781 0.726562 -11.671875 0.5625 -11.671875 C 0.394531 -11.671875 0.242188 -11.710938 0.109375 -11.796875 C 0.0664062 -11.804688 0.0351562 -11.828125 0.015625 -11.859375 C -0.00390625 -11.898438 -0.015625 -11.941406 -0.015625 -11.984375 C -0.00390625 -12.015625 0.015625 -12.046875 0.046875 -12.078125 C 0.078125 -12.109375 0.113281 -12.132812 0.15625 -12.15625 C 0.300781 -12.207031 0.445312 -12.25 0.59375 -12.28125 C 1 -12.300781 1.398438 -12.316406 1.796875 -12.328125 C 1.953125 -12.328125 2.085938 -12.328125 2.203125 -12.328125 C 2.460938 -12.328125 2.65625 -12.335938 2.78125 -12.359375 C 2.90625 -12.378906 3.003906 -12.445312 3.078125 -12.5625 C 3.160156 -12.675781 3.253906 -12.851562 3.359375 -13.09375 C 3.410156 -13.21875 3.476562 -13.359375 3.5625 -13.515625 C 3.78125 -13.972656 3.992188 -14.4375 4.203125 -14.90625 C 4.304688 -15.113281 4.410156 -15.320312 4.515625 -15.53125 C 4.597656 -15.726562 4.726562 -15.878906 4.90625 -15.984375 C 5.082031 -16.066406 5.234375 -16.0625 5.359375 -15.96875 C 5.398438 -15.945312 5.429688 -15.90625 5.453125 -15.84375 C 5.472656 -15.78125 5.484375 -15.726562 5.484375 -15.6875 C 5.484375 -15.4375 5.421875 -15.1875 5.296875 -14.9375 C 5.265625 -14.882812 5.234375 -14.828125 5.203125 -14.765625 C 5.117188 -14.523438 5.03125 -14.285156 4.9375 -14.046875 C 4.75 -13.609375 4.570312 -13.160156 4.40625 -12.703125 C 4.351562 -12.617188 4.347656 -12.546875 4.390625 -12.484375 C 4.429688 -12.421875 4.5 -12.390625 4.59375 -12.390625 C 5.050781 -12.367188 5.5 -12.359375 5.9375 -12.359375 C 6.164062 -12.359375 6.390625 -12.359375 6.609375 -12.359375 C 7.328125 -12.347656 7.613281 -12.25 7.46875 -12.0625 C 7.375 -11.945312 7.269531 -11.878906 7.15625 -11.859375 C 7.039062 -11.847656 6.925781 -11.851562 6.8125 -11.875 C 6.738281 -11.875 6.664062 -11.875 6.59375 -11.875 C 5.875 -11.832031 5.15625 -11.804688 4.4375 -11.796875 C 4.113281 -11.796875 3.894531 -11.644531 3.78125 -11.34375 C 3.664062 -11.0625 3.550781 -10.773438 3.4375 -10.484375 C 3.28125 -10.117188 3.128906 -9.753906 2.984375 -9.390625 C 2.835938 -9.054688 2.695312 -8.71875 2.5625 -8.375 C 2.1875 -7.507812 1.832031 -6.640625 1.5 -5.765625 C 1.28125 -5.203125 1.109375 -4.625 0.984375 -4.03125 C 0.710938 -2.945312 1.128906 -2.53125 2.234375 -2.78125 C 3.328125 -3.039062 4.46875 -3.820312 5.65625 -5.125 C 6.164062 -5.457031 6.300781 -5.3125 6.0625 -4.6875 Z M 6.0625 -4.6875 "/></g><g transform="translate(63.41529, 35.873608)"><path style="stroke:none;" d="M 5.53125 -3.71875 C 5.15625 -3.351562 4.71875 -3.039062 4.21875 -2.78125 C 3.71875 -2.519531 3.300781 -2.347656 2.96875 -2.265625 C 2.632812 -2.179688 2.289062 -2.132812 1.9375 -2.125 C 1.363281 -2.09375 0.835938 -2.171875 0.359375 -2.359375 C -0.421875 -2.671875 -0.691406 -3.273438 -0.453125 -4.171875 C -0.222656 -4.941406 0.234375 -5.539062 0.921875 -5.96875 C 1.609375 -6.40625 2.320312 -6.617188 3.0625 -6.609375 C 3.0625 -6.609375 3.066406 -6.609375 3.078125 -6.609375 C 3.265625 -6.617188 3.441406 -6.601562 3.609375 -6.5625 C 3.898438 -6.457031 4.082031 -6.289062 4.15625 -6.0625 C 4.238281 -5.832031 4.1875 -5.570312 4 -5.28125 C 3.59375 -4.65625 3.03125 -4.304688 2.3125 -4.234375 C 1.84375 -4.191406 1.390625 -4.21875 0.953125 -4.3125 C 0.867188 -4.320312 0.789062 -4.296875 0.71875 -4.234375 C 0.65625 -4.179688 0.617188 -4.113281 0.609375 -4.03125 C 0.484375 -3.46875 0.65625 -3.109375 1.125 -2.953125 C 1.707031 -2.753906 2.3125 -2.753906 2.9375 -2.953125 C 3.664062 -3.179688 4.351562 -3.609375 5 -4.234375 C 5.65625 -4.859375 6.03125 -5.148438 6.125 -5.109375 C 6.226562 -5.066406 6.257812 -4.945312 6.21875 -4.75 C 6.132812 -4.4375 5.90625 -4.09375 5.53125 -3.71875 Z M 1.390625 -5.28125 C 1.359375 -5.238281 1.332031 -5.1875 1.3125 -5.125 C 1.300781 -5.070312 1.320312 -5.023438 1.375 -4.984375 C 1.601562 -4.859375 1.847656 -4.8125 2.109375 -4.84375 C 2.378906 -4.875 2.601562 -4.972656 2.78125 -5.140625 C 2.96875 -5.304688 3.050781 -5.507812 3.03125 -5.75 C 3.007812 -5.832031 2.960938 -5.882812 2.890625 -5.90625 C 2.816406 -5.925781 2.742188 -5.929688 2.671875 -5.921875 C 2.191406 -5.835938 1.765625 -5.625 1.390625 -5.28125 Z M 1.390625 -5.28125 "/></g><g transform="translate(69.059108, 35.873608)"><path style="stroke:none;" d="M 4.96875 -15.40625 C 5 -15.445312 5.066406 -15.484375 5.171875 -15.515625 C 5.273438 -15.554688 5.382812 -15.582031 5.5 -15.59375 C 5.613281 -15.613281 5.710938 -15.613281 5.796875 -15.59375 C 5.878906 -15.570312 5.914062 -15.53125 5.90625 -15.46875 C 5.832031 -15.175781 5.722656 -14.890625 5.578125 -14.609375 C 5.566406 -14.566406 5.546875 -14.515625 5.515625 -14.453125 C 4.984375 -13.210938 4.4375 -11.984375 3.875 -10.765625 C 3.789062 -10.578125 3.710938 -10.398438 3.640625 -10.234375 C 3.441406 -9.816406 3.195312 -9.3125 2.90625 -8.71875 C 2.570312 -8.09375 2.285156 -7.515625 2.046875 -6.984375 C 2.273438 -7.265625 2.554688 -7.46875 2.890625 -7.59375 C 3.234375 -7.71875 3.5 -7.78125 3.6875 -7.78125 C 4.375 -7.757812 4.75 -7.421875 4.8125 -6.765625 C 4.925781 -6.003906 4.789062 -5.234375 4.40625 -4.453125 C 4.03125 -3.671875 3.53125 -3.03125 2.90625 -2.53125 C 2.375 -2.226562 1.867188 -2.09375 1.390625 -2.125 C 0.910156 -2.164062 0.488281 -2.398438 0.125 -2.828125 C 0.0820312 -2.828125 0.0351562 -2.804688 -0.015625 -2.765625 C -0.0664062 -2.722656 -0.117188 -2.675781 -0.171875 -2.625 C -0.242188 -2.53125 -0.320312 -2.460938 -0.40625 -2.421875 C -0.46875 -2.398438 -0.53125 -2.394531 -0.59375 -2.40625 C -0.65625 -2.414062 -0.707031 -2.4375 -0.75 -2.46875 C -0.882812 -2.582031 -0.925781 -2.722656 -0.875 -2.890625 C -0.332031 -4.304688 0.300781 -5.785156 1.03125 -7.328125 C 1.769531 -8.867188 2.503906 -10.367188 3.234375 -11.828125 C 3.546875 -12.484375 3.851562 -13.117188 4.15625 -13.734375 C 4.28125 -13.972656 4.398438 -14.222656 4.515625 -14.484375 C 4.660156 -14.773438 4.8125 -15.082031 4.96875 -15.40625 Z M 2.53125 -6.609375 C 2.03125 -6.242188 1.597656 -5.804688 1.234375 -5.296875 C 0.878906 -4.785156 0.753906 -4.25 0.859375 -3.6875 C 0.910156 -3.351562 1.039062 -3.117188 1.25 -2.984375 C 1.46875 -2.847656 1.71875 -2.894531 2 -3.125 C 2.28125 -3.394531 2.5625 -3.726562 2.84375 -4.125 C 3.132812 -4.53125 3.367188 -4.957031 3.546875 -5.40625 C 3.679688 -5.8125 3.765625 -6.160156 3.796875 -6.453125 C 3.828125 -6.753906 3.75 -6.9375 3.5625 -7 C 3.375 -7.0625 3.03125 -6.929688 2.53125 -6.609375 Z M 2.53125 -6.609375 "/></g><g transform="translate(74.431402, 35.873608)"><path style="stroke:none;" d="M 1.546875 -2.296875 L 1.515625 -2.296875 C 0.578125 -2.304688 -0.0351562 -2.515625 -0.328125 -2.921875 C -0.628906 -3.328125 -0.617188 -3.863281 -0.296875 -4.53125 C -0.0234375 -5.039062 0.316406 -5.488281 0.734375 -5.875 C 0.867188 -6 1.007812 -6.097656 1.15625 -6.171875 C 1.3125 -6.253906 1.484375 -6.296875 1.671875 -6.296875 C 1.773438 -6.316406 1.898438 -6.300781 2.046875 -6.25 C 2.085938 -6.226562 2.132812 -6.210938 2.1875 -6.203125 C 2.289062 -6.210938 2.394531 -6.242188 2.5 -6.296875 C 2.53125 -6.316406 2.566406 -6.332031 2.609375 -6.34375 C 2.816406 -6.4375 3.039062 -6.472656 3.28125 -6.453125 C 3.382812 -6.453125 3.488281 -6.453125 3.59375 -6.453125 C 3.96875 -6.398438 4.25 -6.238281 4.4375 -5.96875 C 4.632812 -5.707031 4.707031 -5.390625 4.65625 -5.015625 C 4.625 -4.796875 4.550781 -4.585938 4.4375 -4.390625 C 3.695312 -3.054688 2.75 -2.359375 1.59375 -2.296875 Z M 3.078125 -5.765625 C 2.566406 -5.785156 2.109375 -5.640625 1.703125 -5.328125 C 1.304688 -5.015625 1.007812 -4.65625 0.8125 -4.25 C 0.625 -3.84375 0.570312 -3.503906 0.65625 -3.234375 C 0.75 -2.972656 1.019531 -2.90625 1.46875 -3.03125 C 1.976562 -3.1875 2.425781 -3.472656 2.8125 -3.890625 C 3.207031 -4.316406 3.445312 -4.722656 3.53125 -5.109375 C 3.625 -5.492188 3.472656 -5.710938 3.078125 -5.765625 Z M 3.078125 -5.765625 "/></g><g transform="translate(79.580658, 35.873608)"><path style="stroke:none;" d="M 1.546875 -2.296875 L 1.515625 -2.296875 C 0.578125 -2.304688 -0.0351562 -2.515625 -0.328125 -2.921875 C -0.628906 -3.328125 -0.617188 -3.863281 -0.296875 -4.53125 C -0.0234375 -5.039062 0.316406 -5.488281 0.734375 -5.875 C 0.867188 -6 1.007812 -6.097656 1.15625 -6.171875 C 1.3125 -6.253906 1.484375 -6.296875 1.671875 -6.296875 C 1.773438 -6.316406 1.898438 -6.300781 2.046875 -6.25 C 2.085938 -6.226562 2.132812 -6.210938 2.1875 -6.203125 C 2.289062 -6.210938 2.394531 -6.242188 2.5 -6.296875 C 2.53125 -6.316406 2.566406 -6.332031 2.609375 -6.34375 C 2.816406 -6.4375 3.039062 -6.472656 3.28125 -6.453125 C 3.382812 -6.453125 3.488281 -6.453125 3.59375 -6.453125 C 3.96875 -6.398438 4.25 -6.238281 4.4375 -5.96875 C 4.632812 -5.707031 4.707031 -5.390625 4.65625 -5.015625 C 4.625 -4.796875 4.550781 -4.585938 4.4375 -4.390625 C 3.695312 -3.054688 2.75 -2.359375 1.59375 -2.296875 Z M 3.078125 -5.765625 C 2.566406 -5.785156 2.109375 -5.640625 1.703125 -5.328125 C 1.304688 -5.015625 1.007812 -4.65625 0.8125 -4.25 C 0.625 -3.84375 0.570312 -3.503906 0.65625 -3.234375 C 0.75 -2.972656 1.019531 -2.90625 1.46875 -3.03125 C 1.976562 -3.1875 2.425781 -3.472656 2.8125 -3.890625 C 3.207031 -4.316406 3.445312 -4.722656 3.53125 -5.109375 C 3.625 -5.492188 3.472656 -5.710938 3.078125 -5.765625 Z M 3.078125 -5.765625 "/></g><g transform="translate(84.729914, 35.873608)"><path style="stroke:none;" d="M 7.515625 -4.953125 C 7.566406 -4.878906 7.578125 -4.804688 7.546875 -4.734375 C 7.523438 -4.660156 7.476562 -4.59375 7.40625 -4.53125 C 6.957031 -4.132812 6.460938 -3.816406 5.921875 -3.578125 C 4.972656 -3.140625 3.984375 -2.867188 2.953125 -2.765625 C 2.128906 -2.679688 1.351562 -2.800781 0.625 -3.125 C 0.351562 -3.25 0.148438 -3.1875 0.015625 -2.9375 C -0.160156 -2.582031 -0.347656 -2.226562 -0.546875 -1.875 C -0.648438 -1.675781 -0.757812 -1.46875 -0.875 -1.25 C -0.882812 -1.226562 -0.894531 -1.195312 -0.90625 -1.15625 C -0.957031 -1.09375 -1.003906 -1.023438 -1.046875 -0.953125 C -1.085938 -0.890625 -1.160156 -0.847656 -1.265625 -0.828125 C -1.316406 -0.816406 -1.367188 -0.8125 -1.421875 -0.8125 C -1.484375 -0.8125 -1.535156 -0.820312 -1.578125 -0.84375 C -1.617188 -0.875 -1.648438 -0.914062 -1.671875 -0.96875 C -1.703125 -1.03125 -1.71875 -1.085938 -1.71875 -1.140625 C -1.675781 -1.328125 -1.613281 -1.515625 -1.53125 -1.703125 C -1.351562 -2.109375 -1.175781 -2.515625 -1 -2.921875 C -0.5625 -3.941406 -0.0976562 -4.945312 0.390625 -5.9375 C 1.722656 -8.6875 2.992188 -11.460938 4.203125 -14.265625 C 4.304688 -14.535156 4.441406 -14.773438 4.609375 -14.984375 C 4.734375 -15.140625 4.910156 -15.1875 5.140625 -15.125 C 5.367188 -15.019531 5.441406 -14.851562 5.359375 -14.625 C 5.203125 -14.144531 5.03125 -13.660156 4.84375 -13.171875 C 3.945312 -10.960938 2.96875 -8.789062 1.90625 -6.65625 C 1.675781 -6.195312 1.59375 -5.90625 1.65625 -5.78125 C 1.71875 -5.664062 1.867188 -5.65625 2.109375 -5.75 C 2.347656 -5.851562 2.628906 -5.988281 2.953125 -6.15625 C 3.171875 -6.28125 3.394531 -6.394531 3.625 -6.5 C 3.664062 -6.53125 3.707031 -6.550781 3.75 -6.5625 C 4.019531 -6.71875 4.316406 -6.800781 4.640625 -6.8125 C 4.753906 -6.8125 4.84375 -6.757812 4.90625 -6.65625 C 4.9375 -6.582031 4.9375 -6.519531 4.90625 -6.46875 C 4.882812 -6.414062 4.847656 -6.375 4.796875 -6.34375 C 4.316406 -6.0625 3.828125 -5.789062 3.328125 -5.53125 C 3.085938 -5.425781 2.835938 -5.304688 2.578125 -5.171875 C 2.328125 -5.054688 2.078125 -4.9375 1.828125 -4.8125 C 1.660156 -4.71875 1.507812 -4.601562 1.375 -4.46875 C 1.039062 -4.125 1.070312 -3.835938 1.46875 -3.609375 C 1.800781 -3.472656 2.132812 -3.398438 2.46875 -3.390625 C 2.800781 -3.390625 3.132812 -3.429688 3.46875 -3.515625 C 4.488281 -3.734375 5.445312 -4.101562 6.34375 -4.625 C 6.414062 -4.664062 6.488281 -4.703125 6.5625 -4.734375 C 6.726562 -4.835938 6.90625 -4.929688 7.09375 -5.015625 C 7.15625 -5.054688 7.226562 -5.070312 7.3125 -5.0625 C 7.40625 -5.050781 7.472656 -5.015625 7.515625 -4.953125 Z M 7.515625 -4.953125 "/></g><g transform="translate(91.5568, 35.873608)"><path style="stroke:none;" d=""/></g><g transform="translate(98.887945, 35.873608)"><path style="stroke:none;" d="M 47.140625 -12.21875 C 47.296875 -12.1875 47.421875 -12.117188 47.515625 -12.015625 C 47.609375 -11.921875 47.628906 -11.832031 47.578125 -11.75 C 47.515625 -11.65625 47.445312 -11.597656 47.375 -11.578125 C 47.300781 -11.566406 47.222656 -11.566406 47.140625 -11.578125 C 47.035156 -11.578125 46.929688 -11.582031 46.828125 -11.59375 C 45.285156 -11.644531 43.242188 -11.554688 40.703125 -11.328125 C 38.171875 -11.109375 36.128906 -10.890625 34.578125 -10.671875 C 33.378906 -10.515625 32.179688 -10.347656 30.984375 -10.171875 C 30.960938 -10.171875 30.929688 -10.160156 30.890625 -10.140625 C 30.390625 -10.066406 29.929688 -9.882812 29.515625 -9.59375 C 27.992188 -8.550781 26.421875 -7.609375 24.796875 -6.765625 C 23.179688 -5.929688 21.53125 -5.15625 19.84375 -4.4375 C 17.101562 -3.226562 14.304688 -2.171875 11.453125 -1.265625 C 10.867188 -1.109375 10.441406 -0.753906 10.171875 -0.203125 C 8.898438 2.328125 7.578125 4.800781 6.203125 7.21875 C 4.984375 9.363281 3.8125 11.539062 2.6875 13.75 C 2.6875 13.757812 2.679688 13.773438 2.671875 13.796875 C 2.617188 13.910156 2.554688 14 2.484375 14.0625 C 2.367188 14.164062 2.234375 14.203125 2.078125 14.171875 C 1.992188 14.203125 1.910156 14.203125 1.828125 14.171875 C 1.660156 14.097656 1.578125 13.972656 1.578125 13.796875 C 1.585938 13.484375 1.6875 13.191406 1.875 12.921875 C 1.882812 12.898438 1.890625 12.882812 1.890625 12.875 C 3.023438 10.820312 4.144531 8.773438 5.25 6.734375 C 6.351562 4.691406 7.421875 2.625 8.453125 0.53125 C 8.535156 0.351562 8.617188 0.171875 8.703125 -0.015625 C 8.734375 -0.0976562 8.769531 -0.191406 8.8125 -0.296875 C 8.707031 -0.316406 8.613281 -0.335938 8.53125 -0.359375 C 8.375 -0.328125 8.21875 -0.28125 8.0625 -0.21875 C 8 -0.207031 7.941406 -0.191406 7.890625 -0.171875 C 5.898438 0.398438 3.890625 0.890625 1.859375 1.296875 C 0.441406 1.546875 -0.972656 1.722656 -2.390625 1.828125 C -2.460938 1.835938 -2.53125 1.84375 -2.59375 1.84375 C -2.726562 1.851562 -2.867188 1.859375 -3.015625 1.859375 C -3.566406 1.859375 -4.097656 1.773438 -4.609375 1.609375 C -5.003906 1.460938 -5.238281 1.234375 -5.3125 0.921875 C -5.394531 0.617188 -5.304688 0.289062 -5.046875 -0.0625 C -4.691406 -0.46875 -4.269531 -0.804688 -3.78125 -1.078125 C -2.6875 -1.765625 -1.53125 -2.328125 -0.3125 -2.765625 C 2.90625 -3.984375 6.175781 -5.054688 9.5 -5.984375 C 9.675781 -6.035156 9.863281 -6.085938 10.0625 -6.140625 C 10.488281 -6.222656 10.882812 -6.347656 11.25 -6.515625 C 11.625 -6.679688 11.90625 -6.96875 12.09375 -7.375 C 12.789062 -8.976562 13.460938 -10.585938 14.109375 -12.203125 C 14.753906 -13.816406 15.351562 -15.457031 15.90625 -17.125 C 15.90625 -17.132812 15.914062 -17.15625 15.9375 -17.1875 C 16.019531 -17.488281 16.128906 -17.769531 16.265625 -18.03125 C 16.328125 -18.125 16.40625 -18.1875 16.5 -18.21875 C 16.59375 -18.257812 16.6875 -18.269531 16.78125 -18.25 C 16.851562 -18.269531 16.929688 -18.269531 17.015625 -18.25 C 17.234375 -18.195312 17.359375 -18.054688 17.390625 -17.828125 C 17.390625 -17.378906 17.304688 -16.953125 17.140625 -16.546875 C 17.140625 -16.535156 17.132812 -16.515625 17.125 -16.484375 C 16.425781 -14.347656 15.644531 -12.25 14.78125 -10.1875 C 14.550781 -9.625 14.316406 -9.0625 14.078125 -8.5 C 13.984375 -8.300781 13.894531 -8.097656 13.8125 -7.890625 C 13.707031 -7.628906 13.664062 -7.453125 13.6875 -7.359375 C 13.707031 -7.265625 13.769531 -7.222656 13.875 -7.234375 C 13.988281 -7.242188 14.128906 -7.273438 14.296875 -7.328125 C 14.347656 -7.335938 14.398438 -7.351562 14.453125 -7.375 C 15.085938 -7.53125 15.71875 -7.6875 16.34375 -7.84375 C 17.476562 -8.125 18.617188 -8.410156 19.765625 -8.703125 C 22.585938 -9.367188 25.425781 -9.9375 28.28125 -10.40625 C 28.789062 -10.488281 29.238281 -10.6875 29.625 -11 C 30.4375 -11.613281 31.238281 -12.332031 32.03125 -13.15625 C 32.832031 -13.988281 33.492188 -14.882812 34.015625 -15.84375 C 34.535156 -16.8125 34.769531 -17.800781 34.71875 -18.8125 C 34.664062 -19.820312 34.195312 -20.820312 33.3125 -21.8125 C 32.75 -22.40625 32.101562 -22.90625 31.375 -23.3125 C 29.851562 -24.132812 28.019531 -24.738281 25.875 -25.125 C 23.738281 -25.507812 21.445312 -25.710938 19 -25.734375 C 16.550781 -25.753906 14.097656 -25.628906 11.640625 -25.359375 C 9.191406 -25.085938 6.894531 -24.707031 4.75 -24.21875 C 2.613281 -23.738281 0.78125 -23.191406 -0.75 -22.578125 C -2.070312 -22.054688 -3.332031 -21.410156 -4.53125 -20.640625 C -5.007812 -20.347656 -5.460938 -20.019531 -5.890625 -19.65625 C -6.316406 -19.300781 -6.703125 -18.894531 -7.046875 -18.4375 C -7.171875 -18.238281 -7.335938 -18.132812 -7.546875 -18.125 C -7.597656 -18.125 -7.648438 -18.125 -7.703125 -18.125 C -7.722656 -18.125 -7.738281 -18.125 -7.75 -18.125 C -7.832031 -18.125 -7.910156 -18.132812 -7.984375 -18.15625 C -8.066406 -18.175781 -8.128906 -18.222656 -8.171875 -18.296875 C -8.203125 -18.359375 -8.21875 -18.414062 -8.21875 -18.46875 C -8.21875 -18.53125 -8.207031 -18.585938 -8.1875 -18.640625 C -8.082031 -18.898438 -7.9375 -19.125 -7.75 -19.3125 C -7.5625 -19.507812 -7.367188 -19.703125 -7.171875 -19.890625 C -6.660156 -20.335938 -6.125 -20.738281 -5.5625 -21.09375 C -5 -21.445312 -4.425781 -21.78125 -3.84375 -22.09375 C -2.332031 -22.894531 -0.40625 -23.613281 1.9375 -24.25 C 4.28125 -24.894531 6.859375 -25.410156 9.671875 -25.796875 C 12.484375 -26.191406 15.3125 -26.40625 18.15625 -26.4375 C 21.007812 -26.46875 23.679688 -26.273438 26.171875 -25.859375 C 28.660156 -25.453125 30.78125 -24.765625 32.53125 -23.796875 C 33.3125 -23.367188 34.015625 -22.820312 34.640625 -22.15625 C 35.515625 -21.175781 36.007812 -20.203125 36.125 -19.234375 C 36.25 -18.273438 36.117188 -17.34375 35.734375 -16.4375 C 35.347656 -15.539062 34.816406 -14.679688 34.140625 -13.859375 C 33.460938 -13.046875 32.769531 -12.285156 32.0625 -11.578125 C 31.976562 -11.503906 31.894531 -11.414062 31.8125 -11.3125 C 31.726562 -11.207031 31.691406 -11.117188 31.703125 -11.046875 C 31.710938 -10.972656 31.816406 -10.953125 32.015625 -10.984375 C 34.398438 -11.367188 36.78125 -11.660156 39.15625 -11.859375 C 41.53125 -12.054688 43.921875 -12.1875 46.328125 -12.25 C 46.398438 -12.25 46.46875 -12.25 46.53125 -12.25 L 46.546875 -12.25 C 46.742188 -12.25 46.941406 -12.238281 47.140625 -12.21875 Z M 9.59375 -1.875 C 9.644531 -2 9.742188 -2.179688 9.890625 -2.421875 C 10.085938 -2.804688 10.296875 -3.226562 10.515625 -3.6875 C 10.734375 -4.15625 10.894531 -4.5625 11 -4.90625 C 11.101562 -5.257812 11.050781 -5.453125 10.84375 -5.484375 C 10.726562 -5.460938 10.609375 -5.429688 10.484375 -5.390625 C 10.460938 -5.390625 10.429688 -5.382812 10.390625 -5.375 C 9.929688 -5.226562 9.472656 -5.09375 9.015625 -4.96875 C 7.921875 -4.644531 6.828125 -4.304688 5.734375 -3.953125 C 5.679688 -3.941406 5.625 -3.921875 5.5625 -3.890625 C 3.601562 -3.296875 1.664062 -2.609375 -0.25 -1.828125 C -1.207031 -1.429688 -2.117188 -0.945312 -2.984375 -0.375 C -3.316406 -0.1875 -3.585938 0.0625 -3.796875 0.375 C -3.878906 0.5 -3.90625 0.613281 -3.875 0.71875 C -3.84375 0.820312 -3.753906 0.90625 -3.609375 0.96875 C -3.304688 1.0625 -3.003906 1.109375 -2.703125 1.109375 C -2.421875 1.109375 -2.144531 1.097656 -1.875 1.078125 C -1.863281 1.078125 -1.859375 1.078125 -1.859375 1.078125 C -0.453125 0.929688 0.929688 0.703125 2.296875 0.390625 C 4.460938 -0.0859375 6.601562 -0.648438 8.71875 -1.296875 C 8.75 -1.304688 8.769531 -1.3125 8.78125 -1.3125 C 8.945312 -1.351562 9.101562 -1.410156 9.25 -1.484375 C 9.394531 -1.566406 9.507812 -1.695312 9.59375 -1.875 Z M 11.40625 -2.25 C 12.6875 -2.582031 14.429688 -3.195312 16.640625 -4.09375 C 18.847656 -5 20.96875 -5.953125 23 -6.953125 C 25.03125 -7.960938 26.414062 -8.789062 27.15625 -9.4375 C 27.050781 -9.4375 26.96875 -9.4375 26.90625 -9.4375 C 26.863281 -9.4375 26.835938 -9.4375 26.828125 -9.4375 C 22.359375 -8.550781 17.9375 -7.5 13.5625 -6.28125 C 13.175781 -6.175781 12.910156 -5.941406 12.765625 -5.578125 C 12.503906 -5.015625 12.242188 -4.453125 11.984375 -3.890625 C 11.785156 -3.484375 11.585938 -3.066406 11.390625 -2.640625 C 11.359375 -2.578125 11.335938 -2.507812 11.328125 -2.4375 C 11.328125 -2.375 11.351562 -2.3125 11.40625 -2.25 Z M 11.40625 -2.25 "/></g><g transform="translate(126.079122, 35.873608)"><path style="stroke:none;" d="M 4.640625 -5.953125 C 4.585938 -5.503906 4.378906 -5.210938 4.015625 -5.078125 C 3.660156 -4.941406 3.546875 -5.117188 3.671875 -5.609375 C 3.796875 -6.097656 3.570312 -6.222656 3 -5.984375 C 2.4375 -5.742188 1.96875 -5.441406 1.59375 -5.078125 C 1.03125 -4.492188 0.53125 -3.863281 0.09375 -3.1875 C 0.0390625 -3.132812 0.00390625 -3.085938 -0.015625 -3.046875 C -0.148438 -2.859375 -0.28125 -2.679688 -0.40625 -2.515625 C -0.488281 -2.398438 -0.585938 -2.328125 -0.703125 -2.296875 C -0.816406 -2.265625 -0.929688 -2.257812 -1.046875 -2.28125 C -1.160156 -2.289062 -1.242188 -2.332031 -1.296875 -2.40625 C -1.359375 -2.476562 -1.363281 -2.5625 -1.3125 -2.65625 C -1.25 -2.832031 -1.164062 -3.007812 -1.0625 -3.1875 C -0.476562 -4.269531 0.109375 -5.351562 0.703125 -6.4375 C 0.722656 -6.445312 0.734375 -6.460938 0.734375 -6.484375 C 0.816406 -6.648438 0.914062 -6.800781 1.03125 -6.9375 C 1.15625 -7.082031 1.300781 -7.140625 1.46875 -7.109375 C 1.632812 -7.085938 1.75 -6.988281 1.8125 -6.8125 C 1.882812 -6.59375 1.945312 -6.46875 2 -6.4375 C 2.050781 -6.40625 2.164062 -6.425781 2.34375 -6.5 C 2.726562 -6.632812 3.101562 -6.734375 3.46875 -6.796875 C 3.84375 -6.859375 4.144531 -6.84375 4.375 -6.75 C 4.613281 -6.664062 4.703125 -6.398438 4.640625 -5.953125 Z M 4.640625 -5.953125 "/></g><g transform="translate(130.927763, 35.873608)"><path style="stroke:none;" d="M 1.546875 -2.296875 L 1.515625 -2.296875 C 0.578125 -2.304688 -0.0351562 -2.515625 -0.328125 -2.921875 C -0.628906 -3.328125 -0.617188 -3.863281 -0.296875 -4.53125 C -0.0234375 -5.039062 0.316406 -5.488281 0.734375 -5.875 C 0.867188 -6 1.007812 -6.097656 1.15625 -6.171875 C 1.3125 -6.253906 1.484375 -6.296875 1.671875 -6.296875 C 1.773438 -6.316406 1.898438 -6.300781 2.046875 -6.25 C 2.085938 -6.226562 2.132812 -6.210938 2.1875 -6.203125 C 2.289062 -6.210938 2.394531 -6.242188 2.5 -6.296875 C 2.53125 -6.316406 2.566406 -6.332031 2.609375 -6.34375 C 2.816406 -6.4375 3.039062 -6.472656 3.28125 -6.453125 C 3.382812 -6.453125 3.488281 -6.453125 3.59375 -6.453125 C 3.96875 -6.398438 4.25 -6.238281 4.4375 -5.96875 C 4.632812 -5.707031 4.707031 -5.390625 4.65625 -5.015625 C 4.625 -4.796875 4.550781 -4.585938 4.4375 -4.390625 C 3.695312 -3.054688 2.75 -2.359375 1.59375 -2.296875 Z M 3.078125 -5.765625 C 2.566406 -5.785156 2.109375 -5.640625 1.703125 -5.328125 C 1.304688 -5.015625 1.007812 -4.65625 0.8125 -4.25 C 0.625 -3.84375 0.570312 -3.503906 0.65625 -3.234375 C 0.75 -2.972656 1.019531 -2.90625 1.46875 -3.03125 C 1.976562 -3.1875 2.425781 -3.472656 2.8125 -3.890625 C 3.207031 -4.316406 3.445312 -4.722656 3.53125 -5.109375 C 3.625 -5.492188 3.472656 -5.710938 3.078125 -5.765625 Z M 3.078125 -5.765625 "/></g><g transform="translate(136.07702, 35.873608)"><path style="stroke:none;" d="M 2.109375 -8.21875 C 1.898438 -8.007812 1.710938 -7.910156 1.546875 -7.921875 C 1.378906 -7.929688 1.332031 -8.113281 1.40625 -8.46875 C 1.507812 -8.988281 1.742188 -9.460938 2.109375 -9.890625 C 2.179688 -9.960938 2.265625 -10.003906 2.359375 -10.015625 C 2.460938 -10.023438 2.566406 -10.015625 2.671875 -9.984375 C 2.710938 -9.953125 2.753906 -9.910156 2.796875 -9.859375 C 2.835938 -9.804688 2.859375 -9.757812 2.859375 -9.71875 C 2.773438 -9.132812 2.523438 -8.632812 2.109375 -8.21875 Z M 4.5 -5 C 4.539062 -5 4.578125 -4.988281 4.609375 -4.96875 C 4.648438 -4.957031 4.675781 -4.929688 4.6875 -4.890625 C 4.6875 -4.867188 4.679688 -4.835938 4.671875 -4.796875 C 4.660156 -4.753906 4.640625 -4.71875 4.609375 -4.6875 C 4.453125 -4.550781 4.28125 -4.429688 4.09375 -4.328125 C 3.769531 -4.140625 3.445312 -3.945312 3.125 -3.75 C 2.289062 -3.21875 1.445312 -2.726562 0.59375 -2.28125 C -0.0625 -1.925781 -0.515625 -1.410156 -0.765625 -0.734375 C -1.335938 0.597656 -1.9375 1.921875 -2.5625 3.234375 C -2.832031 3.847656 -3.128906 4.441406 -3.453125 5.015625 C -3.785156 5.597656 -4.164062 6.160156 -4.59375 6.703125 C -5.414062 7.773438 -6.46875 8.394531 -7.75 8.5625 C -8.789062 8.6875 -9.804688 8.625 -10.796875 8.375 C -11.578125 8.15625 -12.300781 7.835938 -12.96875 7.421875 C -13.226562 7.253906 -13.460938 7.070312 -13.671875 6.875 C -14.648438 5.976562 -14.535156 5.046875 -13.328125 4.078125 C -12.929688 3.765625 -12.515625 3.488281 -12.078125 3.25 C -11.378906 2.851562 -10.671875 2.484375 -9.953125 2.140625 C -9.046875 1.703125 -8.144531 1.269531 -7.25 0.84375 C -5.757812 0.144531 -4.28125 -0.554688 -2.8125 -1.265625 C -2.53125 -1.410156 -2.296875 -1.523438 -2.109375 -1.609375 C -1.847656 -1.722656 -1.660156 -1.816406 -1.546875 -1.890625 C -1.441406 -1.972656 -1.351562 -2.070312 -1.28125 -2.1875 C -1.207031 -2.300781 -1.125 -2.476562 -1.03125 -2.71875 C -0.957031 -2.925781 -0.835938 -3.191406 -0.671875 -3.515625 C -0.429688 -4.054688 -0.207031 -4.59375 0 -5.125 C 0.15625 -5.519531 0.3125 -5.898438 0.46875 -6.265625 C 0.570312 -6.503906 0.703125 -6.71875 0.859375 -6.90625 C 1.015625 -7.070312 1.195312 -7.097656 1.40625 -6.984375 C 1.5625 -6.898438 1.617188 -6.773438 1.578125 -6.609375 C 1.523438 -6.429688 1.421875 -6.140625 1.265625 -5.734375 C 1.128906 -5.378906 0.992188 -5.007812 0.859375 -4.625 C 0.722656 -4.238281 0.613281 -3.90625 0.53125 -3.625 C 0.457031 -3.34375 0.4375 -3.175781 0.46875 -3.125 C 0.5 -3.082031 0.585938 -3.09375 0.734375 -3.15625 C 0.878906 -3.226562 1.125 -3.351562 1.46875 -3.53125 C 1.488281 -3.53125 1.5 -3.53125 1.5 -3.53125 C 2.039062 -3.832031 2.570312 -4.132812 3.09375 -4.4375 C 3.289062 -4.539062 3.488281 -4.660156 3.6875 -4.796875 C 3.707031 -4.796875 3.71875 -4.796875 3.71875 -4.796875 C 3.84375 -4.859375 3.96875 -4.914062 4.09375 -4.96875 C 4.21875 -5.019531 4.351562 -5.03125 4.5 -5 Z M -2.109375 -0.21875 C -2.023438 -0.382812 -2.023438 -0.535156 -2.109375 -0.671875 C -2.273438 -0.691406 -2.429688 -0.648438 -2.578125 -0.546875 C -2.609375 -0.535156 -2.644531 -0.519531 -2.6875 -0.5 C -3.289062 -0.21875 -3.890625 0.0625 -4.484375 0.34375 C -6.046875 1.082031 -7.601562 1.820312 -9.15625 2.5625 C -10.007812 2.988281 -10.863281 3.445312 -11.71875 3.9375 C -12.070312 4.144531 -12.40625 4.394531 -12.71875 4.6875 C -13.3125 5.21875 -13.378906 5.734375 -12.921875 6.234375 C -12.828125 6.359375 -12.722656 6.46875 -12.609375 6.5625 C -12.023438 7 -11.394531 7.335938 -10.71875 7.578125 C -10.050781 7.816406 -9.335938 7.945312 -8.578125 7.96875 C -7.453125 7.96875 -6.503906 7.515625 -5.734375 6.609375 C -5.210938 5.992188 -4.769531 5.328125 -4.40625 4.609375 C -3.863281 3.472656 -3.328125 2.332031 -2.796875 1.1875 C -2.566406 0.707031 -2.335938 0.238281 -2.109375 -0.21875 Z M -2.109375 -0.21875 "/></g><g transform="translate(140.023813, 35.873608)"><path style="stroke:none;" d="M 5.53125 -3.71875 C 5.15625 -3.351562 4.71875 -3.039062 4.21875 -2.78125 C 3.71875 -2.519531 3.300781 -2.347656 2.96875 -2.265625 C 2.632812 -2.179688 2.289062 -2.132812 1.9375 -2.125 C 1.363281 -2.09375 0.835938 -2.171875 0.359375 -2.359375 C -0.421875 -2.671875 -0.691406 -3.273438 -0.453125 -4.171875 C -0.222656 -4.941406 0.234375 -5.539062 0.921875 -5.96875 C 1.609375 -6.40625 2.320312 -6.617188 3.0625 -6.609375 C 3.0625 -6.609375 3.066406 -6.609375 3.078125 -6.609375 C 3.265625 -6.617188 3.441406 -6.601562 3.609375 -6.5625 C 3.898438 -6.457031 4.082031 -6.289062 4.15625 -6.0625 C 4.238281 -5.832031 4.1875 -5.570312 4 -5.28125 C 3.59375 -4.65625 3.03125 -4.304688 2.3125 -4.234375 C 1.84375 -4.191406 1.390625 -4.21875 0.953125 -4.3125 C 0.867188 -4.320312 0.789062 -4.296875 0.71875 -4.234375 C 0.65625 -4.179688 0.617188 -4.113281 0.609375 -4.03125 C 0.484375 -3.46875 0.65625 -3.109375 1.125 -2.953125 C 1.707031 -2.753906 2.3125 -2.753906 2.9375 -2.953125 C 3.664062 -3.179688 4.351562 -3.609375 5 -4.234375 C 5.65625 -4.859375 6.03125 -5.148438 6.125 -5.109375 C 6.226562 -5.066406 6.257812 -4.945312 6.21875 -4.75 C 6.132812 -4.4375 5.90625 -4.09375 5.53125 -3.71875 Z M 1.390625 -5.28125 C 1.359375 -5.238281 1.332031 -5.1875 1.3125 -5.125 C 1.300781 -5.070312 1.320312 -5.023438 1.375 -4.984375 C 1.601562 -4.859375 1.847656 -4.8125 2.109375 -4.84375 C 2.378906 -4.875 2.601562 -4.972656 2.78125 -5.140625 C 2.96875 -5.304688 3.050781 -5.507812 3.03125 -5.75 C 3.007812 -5.832031 2.960938 -5.882812 2.890625 -5.90625 C 2.816406 -5.925781 2.742188 -5.929688 2.671875 -5.921875 C 2.191406 -5.835938 1.765625 -5.625 1.390625 -5.28125 Z M 1.390625 -5.28125 "/></g><g transform="translate(145.667631, 35.873608)"><path style="stroke:none;" d="M 6.984375 -5.046875 C 7.023438 -5.046875 7.066406 -5.035156 7.109375 -5.015625 C 7.148438 -5.003906 7.179688 -4.988281 7.203125 -4.96875 C 7.296875 -4.882812 7.304688 -4.785156 7.234375 -4.671875 C 7.140625 -4.566406 7.050781 -4.476562 6.96875 -4.40625 C 6.46875 -3.945312 5.914062 -3.566406 5.3125 -3.265625 C 4.351562 -2.773438 3.300781 -2.523438 2.15625 -2.515625 C 1.726562 -2.492188 1.285156 -2.5625 0.828125 -2.71875 C 0.00390625 -3.039062 -0.328125 -3.640625 -0.171875 -4.515625 C 0.015625 -5.328125 0.46875 -6 1.1875 -6.53125 C 1.914062 -7.0625 2.691406 -7.289062 3.515625 -7.21875 C 3.671875 -7.195312 3.828125 -7.164062 3.984375 -7.125 C 4.128906 -7.0625 4.234375 -6.972656 4.296875 -6.859375 C 4.367188 -6.742188 4.378906 -6.648438 4.328125 -6.578125 C 4.171875 -6.410156 3.992188 -6.367188 3.796875 -6.453125 C 3.492188 -6.585938 3.21875 -6.625 2.96875 -6.5625 C 2.71875 -6.507812 2.46875 -6.375 2.21875 -6.15625 C 1.976562 -5.96875 1.710938 -5.695312 1.421875 -5.34375 C 1.140625 -4.988281 0.957031 -4.628906 0.875 -4.265625 C 0.800781 -3.898438 0.96875 -3.609375 1.375 -3.390625 C 1.820312 -3.179688 2.28125 -3.128906 2.75 -3.234375 C 3.925781 -3.472656 5.019531 -3.921875 6.03125 -4.578125 C 6.125 -4.617188 6.207031 -4.671875 6.28125 -4.734375 C 6.382812 -4.816406 6.492188 -4.882812 6.609375 -4.9375 C 6.722656 -4.988281 6.847656 -5.023438 6.984375 -5.046875 Z M 6.984375 -5.046875 "/></g><g transform="translate(152.135718, 35.873608)"><path style="stroke:none;" d="M 6.0625 -4.6875 C 5.195312 -3.664062 4.347656 -2.910156 3.515625 -2.421875 C 2.679688 -1.941406 1.789062 -1.78125 0.84375 -1.9375 C -0.101562 -2.101562 -0.488281 -2.738281 -0.3125 -3.84375 C -0.195312 -4.40625 -0.0390625 -4.953125 0.15625 -5.484375 C 0.65625 -6.710938 1.160156 -7.9375 1.671875 -9.15625 C 1.835938 -9.601562 2.015625 -10.046875 2.203125 -10.484375 C 2.242188 -10.585938 2.285156 -10.6875 2.328125 -10.78125 C 2.398438 -10.945312 2.472656 -11.113281 2.546875 -11.28125 C 2.648438 -11.5625 2.535156 -11.707031 2.203125 -11.71875 C 2.015625 -11.71875 1.832031 -11.71875 1.65625 -11.71875 C 1.5625 -11.71875 1.46875 -11.71875 1.375 -11.71875 C 1.269531 -11.707031 1.164062 -11.695312 1.0625 -11.6875 C 0.894531 -11.675781 0.726562 -11.671875 0.5625 -11.671875 C 0.394531 -11.671875 0.242188 -11.710938 0.109375 -11.796875 C 0.0664062 -11.804688 0.0351562 -11.828125 0.015625 -11.859375 C -0.00390625 -11.898438 -0.015625 -11.941406 -0.015625 -11.984375 C -0.00390625 -12.015625 0.015625 -12.046875 0.046875 -12.078125 C 0.078125 -12.109375 0.113281 -12.132812 0.15625 -12.15625 C 0.300781 -12.207031 0.445312 -12.25 0.59375 -12.28125 C 1 -12.300781 1.398438 -12.316406 1.796875 -12.328125 C 1.953125 -12.328125 2.085938 -12.328125 2.203125 -12.328125 C 2.460938 -12.328125 2.65625 -12.335938 2.78125 -12.359375 C 2.90625 -12.378906 3.003906 -12.445312 3.078125 -12.5625 C 3.160156 -12.675781 3.253906 -12.851562 3.359375 -13.09375 C 3.410156 -13.21875 3.476562 -13.359375 3.5625 -13.515625 C 3.78125 -13.972656 3.992188 -14.4375 4.203125 -14.90625 C 4.304688 -15.113281 4.410156 -15.320312 4.515625 -15.53125 C 4.597656 -15.726562 4.726562 -15.878906 4.90625 -15.984375 C 5.082031 -16.066406 5.234375 -16.0625 5.359375 -15.96875 C 5.398438 -15.945312 5.429688 -15.90625 5.453125 -15.84375 C 5.472656 -15.78125 5.484375 -15.726562 5.484375 -15.6875 C 5.484375 -15.4375 5.421875 -15.1875 5.296875 -14.9375 C 5.265625 -14.882812 5.234375 -14.828125 5.203125 -14.765625 C 5.117188 -14.523438 5.03125 -14.285156 4.9375 -14.046875 C 4.75 -13.609375 4.570312 -13.160156 4.40625 -12.703125 C 4.351562 -12.617188 4.347656 -12.546875 4.390625 -12.484375 C 4.429688 -12.421875 4.5 -12.390625 4.59375 -12.390625 C 5.050781 -12.367188 5.5 -12.359375 5.9375 -12.359375 C 6.164062 -12.359375 6.390625 -12.359375 6.609375 -12.359375 C 7.328125 -12.347656 7.613281 -12.25 7.46875 -12.0625 C 7.375 -11.945312 7.269531 -11.878906 7.15625 -11.859375 C 7.039062 -11.847656 6.925781 -11.851562 6.8125 -11.875 C 6.738281 -11.875 6.664062 -11.875 6.59375 -11.875 C 5.875 -11.832031 5.15625 -11.804688 4.4375 -11.796875 C 4.113281 -11.796875 3.894531 -11.644531 3.78125 -11.34375 C 3.664062 -11.0625 3.550781 -10.773438 3.4375 -10.484375 C 3.28125 -10.117188 3.128906 -9.753906 2.984375 -9.390625 C 2.835938 -9.054688 2.695312 -8.71875 2.5625 -8.375 C 2.1875 -7.507812 1.832031 -6.640625 1.5 -5.765625 C 1.28125 -5.203125 1.109375 -4.625 0.984375 -4.03125 C 0.710938 -2.945312 1.128906 -2.53125 2.234375 -2.78125 C 3.328125 -3.039062 4.46875 -3.820312 5.65625 -5.125 C 6.164062 -5.457031 6.300781 -5.3125 6.0625 -4.6875 Z M 6.0625 -4.6875 "/></g></g></g></g></svg>
