<?xml version="1.0" encoding="UTF-8"?><svg xmlns="http://www.w3.org/2000/svg" xmlns:xlink="http://www.w3.org/1999/xlink" contentScriptType="text/ecmascript" width="1874.88pt" zoomAndPan="magnify" contentStyleType="text/css" viewBox="0 0 1874.88 1874.999927" height="1874.999927pt" preserveAspectRatio="xMidYMid meet" version="1.2"><defs><g/></defs><g xml:id="surface1" id="surface1"><g style="fill:rgb(0%,0%,0%);fill-opacity:1;"><g transform="translate(143.671425, 1182.888959)"><path style="stroke:none;" d="M 1625.6875 -762.171875 C 1620.632812 -761.003906 1616.066406 -761.144531 1611.984375 -762.59375 C 1607.910156 -764.050781 1604.128906 -765.847656 1600.640625 -767.984375 C 1598.890625 -768.765625 1597.429688 -769.640625 1596.265625 -770.609375 C 1546.753906 -797.398438 1494.234375 -817.5 1438.703125 -830.90625 C 1294.253906 -865.457031 1147.082031 -851.085938 997.1875 -787.796875 C 942.4375 -764.691406 889.96875 -736.925781 839.78125 -704.5 C 789.59375 -672.070312 740.617188 -636.640625 692.859375 -598.203125 C 615.960938 -535.878906 545.140625 -467.628906 480.390625 -393.453125 C 415.640625 -319.285156 355.988281 -240.171875 301.4375 -156.109375 C 281.625 -126.203125 262.59375 -95.910156 244.34375 -65.234375 C 243.957031 -64.265625 243.472656 -63.390625 242.890625 -62.609375 C 228.910156 -40.867188 217.457031 -17.765625 208.53125 6.703125 C 204.257812 18.148438 198.914062 29.019531 192.5 39.3125 C 184.738281 52.90625 174.0625 58.050781 160.46875 54.75 C 152.707031 53 149.503906 48.050781 150.859375 39.90625 C 151.640625 33.882812 153.484375 28.15625 156.390625 22.71875 C 170.953125 -6.019531 183.816406 -35.09375 194.984375 -64.5 C 206.148438 -93.914062 216.585938 -123.578125 226.296875 -153.484375 C 228.816406 -161.242188 231.4375 -168.71875 234.15625 -175.90625 C 292.59375 -347.15625 346.765625 -519.566406 396.671875 -693.140625 C 397.640625 -696.828125 398.316406 -700.613281 398.703125 -704.5 C 398.703125 -706.25 398.894531 -708.191406 399.28125 -710.328125 C 394.625 -709.941406 391.03125 -708.4375 388.5 -705.8125 C 385.976562 -703.1875 383.847656 -700.226562 382.109375 -696.9375 C 381.710938 -695.570312 381.03125 -694.304688 380.0625 -693.140625 C 377.15625 -688.867188 374.4375 -684.304688 371.90625 -679.453125 C 343.5625 -635.179688 315.3125 -590.625 287.15625 -545.78125 C 243.28125 -473.9375 199.304688 -402.097656 155.234375 -330.265625 C 91.546875 -226.578125 27.472656 -122.601562 -36.984375 -18.34375 C -51.160156 4.757812 -66.113281 27.179688 -81.84375 48.921875 C -85.71875 54.554688 -89.304688 59.898438 -92.609375 64.953125 C -98.628906 74.847656 -106.976562 80.863281 -117.65625 83 C -120.757812 83.382812 -123.570312 83.238281 -126.09375 82.5625 C -128.625 81.882812 -130.28125 80.285156 -131.0625 77.765625 C -132.03125 76.015625 -132.078125 73.972656 -131.203125 71.640625 C -130.328125 69.316406 -129.210938 67.28125 -127.859375 65.53125 C 25.921875 -186.101562 180.082031 -437.441406 334.625 -688.484375 C 348.800781 -710.804688 363.753906 -732.648438 379.484375 -754.015625 C 382.972656 -758.671875 386.175781 -763.328125 389.09375 -767.984375 C 398.019531 -781.191406 409.765625 -789.738281 424.328125 -793.625 C 433.265625 -795.363281 440.304688 -794.097656 445.453125 -789.828125 C 450.597656 -785.554688 452.972656 -778.664062 452.578125 -769.15625 C 450.054688 -741.394531 444.523438 -713.921875 435.984375 -686.734375 C 393.648438 -540.535156 348.3125 -395.304688 299.96875 -251.046875 C 299.582031 -249.296875 299.003906 -247.742188 298.234375 -246.390625 C 296.484375 -242.117188 295.265625 -237.847656 294.578125 -233.578125 C 293.898438 -229.304688 294.828125 -224.644531 297.359375 -219.59375 C 300.847656 -224.25 304.34375 -228.710938 307.84375 -232.984375 C 315.019531 -241.921875 321.8125 -250.851562 328.21875 -259.78125 C 404.332031 -367.539062 491.023438 -465.203125 588.296875 -552.765625 C 644.210938 -603.054688 702.21875 -649.460938 762.3125 -691.984375 C 822.40625 -734.503906 885.554688 -770.90625 951.765625 -801.1875 C 1088.453125 -862.351562 1225.722656 -885.070312 1363.578125 -869.34375 C 1450.753906 -858.664062 1531.910156 -833.425781 1607.046875 -793.625 C 1608.796875 -792.84375 1610.738281 -791.96875 1612.875 -791 C 1616.75 -789.25 1620.382812 -787.304688 1623.78125 -785.171875 C 1627.1875 -783.035156 1629.957031 -779.832031 1632.09375 -775.5625 C 1632.476562 -774.789062 1632.671875 -773.675781 1632.671875 -772.21875 C 1632.671875 -770.757812 1632.476562 -769.347656 1632.09375 -767.984375 C 1631.3125 -766.628906 1630.382812 -765.414062 1629.3125 -764.34375 C 1628.25 -763.28125 1627.039062 -762.554688 1625.6875 -762.171875 Z M 1625.6875 -762.171875 "/></g><g transform="translate(565.96056, 1182.888959)"><path style="stroke:none;" d="M 46.3125 -69.015625 L 45.4375 -69.015625 C 17.28125 -69.410156 -1.257812 -75.675781 -10.1875 -87.8125 C -19.125 -99.945312 -18.738281 -116.109375 -9.03125 -136.296875 C -0.875 -151.640625 9.414062 -165.035156 21.84375 -176.484375 C 26.113281 -180.367188 30.476562 -183.472656 34.9375 -185.796875 C 39.40625 -188.128906 44.457031 -189.296875 50.09375 -189.296875 C 53.394531 -189.878906 57.179688 -189.300781 61.453125 -187.5625 C 62.804688 -187.164062 64.164062 -186.675781 65.53125 -186.09375 C 68.832031 -186.675781 72.035156 -187.742188 75.140625 -189.296875 C 75.910156 -189.878906 76.976562 -190.367188 78.34375 -190.765625 C 84.75 -193.285156 91.546875 -194.351562 98.734375 -193.96875 C 101.640625 -193.96875 104.644531 -193.96875 107.75 -193.96875 C 119.207031 -192.21875 127.847656 -187.410156 133.671875 -179.546875 C 139.503906 -171.679688 141.546875 -162.117188 139.796875 -150.859375 C 138.828125 -144.066406 136.691406 -137.660156 133.390625 -131.640625 C 111.054688 -91.640625 82.609375 -70.765625 48.046875 -69.015625 Z M 92.328125 -173.28125 C 76.984375 -173.863281 63.34375 -169.445312 51.40625 -160.03125 C 39.46875 -150.613281 30.582031 -139.789062 24.75 -127.5625 C 18.925781 -115.332031 17.320312 -105.285156 19.9375 -97.421875 C 22.5625 -89.554688 30.671875 -87.367188 44.265625 -90.859375 C 59.609375 -95.523438 73.148438 -104.265625 84.890625 -117.078125 C 96.640625 -129.890625 103.820312 -142.070312 106.4375 -153.625 C 109.0625 -165.175781 104.359375 -171.726562 92.328125 -173.28125 Z M 92.328125 -173.28125 "/></g><g transform="translate(720.605752, 1182.888959)"><path style="stroke:none;" d="M 182.015625 -140.671875 C 156.003906 -109.992188 130.523438 -87.375 105.578125 -72.8125 C 80.628906 -58.25 53.929688 -53.441406 25.484375 -58.390625 C -2.960938 -63.335938 -14.660156 -82.414062 -9.609375 -115.625 C -6.117188 -132.320312 -1.363281 -148.628906 4.65625 -164.546875 C 19.601562 -201.628906 34.75 -238.519531 50.09375 -275.21875 C 55.144531 -288.414062 60.484375 -301.71875 66.109375 -315.125 C 67.472656 -318.03125 68.734375 -320.941406 69.890625 -323.859375 C 72.023438 -328.710938 74.160156 -333.660156 76.296875 -338.703125 C 79.410156 -347.242188 76.015625 -351.710938 66.109375 -352.109375 C 60.484375 -352.109375 54.953125 -352.109375 49.515625 -352.109375 C 46.984375 -352.109375 44.164062 -352.109375 41.0625 -352.109375 C 38.15625 -351.710938 35.144531 -351.320312 32.03125 -350.9375 C 26.988281 -350.550781 21.988281 -350.359375 17.03125 -350.359375 C 12.082031 -350.359375 7.472656 -351.617188 3.203125 -354.140625 C 2.035156 -354.523438 1.113281 -355.253906 0.4375 -356.328125 C -0.238281 -357.398438 -0.578125 -358.613281 -0.578125 -359.96875 C -0.191406 -360.75 0.4375 -361.671875 1.3125 -362.734375 C 2.1875 -363.804688 3.300781 -364.535156 4.65625 -364.921875 C 8.925781 -366.671875 13.394531 -367.929688 18.0625 -368.703125 C 30.09375 -369.285156 42.03125 -369.769531 53.875 -370.15625 C 58.539062 -370.15625 62.617188 -370.15625 66.109375 -370.15625 C 73.878906 -370.15625 79.65625 -370.445312 83.4375 -371.03125 C 87.226562 -371.613281 90.285156 -373.648438 92.609375 -377.140625 C 94.941406 -380.640625 97.660156 -385.984375 100.765625 -393.171875 C 102.515625 -397.054688 104.648438 -401.328125 107.171875 -405.984375 C 113.578125 -419.578125 119.984375 -433.457031 126.390625 -447.625 C 129.304688 -454.03125 132.316406 -460.242188 135.421875 -466.265625 C 137.953125 -472.285156 141.929688 -476.945312 147.359375 -480.25 C 152.609375 -482.769531 157.171875 -482.578125 161.046875 -479.671875 C 162.210938 -478.890625 163.132812 -477.625 163.8125 -475.875 C 164.5 -474.132812 164.84375 -472.582031 164.84375 -471.21875 C 164.84375 -463.644531 162.898438 -456.171875 159.015625 -448.796875 C 158.234375 -447.242188 157.359375 -445.398438 156.390625 -443.265625 C 153.867188 -436.273438 151.148438 -429.1875 148.234375 -422 C 142.609375 -408.800781 137.269531 -395.304688 132.21875 -381.515625 C 130.863281 -378.992188 130.816406 -376.757812 132.078125 -374.8125 C 133.335938 -372.875 135.226562 -371.90625 137.75 -371.90625 C 151.539062 -371.519531 165.035156 -371.328125 178.234375 -371.328125 C 185.035156 -371.328125 191.832031 -371.328125 198.625 -371.328125 C 219.976562 -370.941406 228.519531 -367.929688 224.25 -362.296875 C 221.34375 -358.992188 218.1875 -357.097656 214.78125 -356.609375 C 211.382812 -356.128906 207.941406 -356.179688 204.453125 -356.765625 C 202.316406 -356.765625 200.179688 -356.765625 198.046875 -356.765625 C 176.296875 -355.398438 154.742188 -354.523438 133.390625 -354.140625 C 123.484375 -354.140625 116.878906 -349.675781 113.578125 -340.75 C 110.085938 -332.207031 106.691406 -323.664062 103.390625 -315.125 C 98.535156 -303.863281 93.972656 -292.890625 89.703125 -282.203125 C 85.429688 -272.109375 81.160156 -261.914062 76.890625 -251.625 C 65.816406 -225.613281 55.132812 -199.5 44.84375 -173.28125 C 38.4375 -156.195312 33.390625 -138.722656 29.703125 -120.859375 C 21.546875 -88.441406 34.070312 -76.015625 67.28125 -83.578125 C 99.894531 -91.347656 134.066406 -114.84375 169.796875 -154.0625 C 185.328125 -163.96875 189.398438 -159.503906 182.015625 -140.671875 Z M 182.015625 -140.671875 "/></g><g transform="translate(886.026601, 1182.888959)"><path style="stroke:none;" d="M 166 -111.828125 C 154.738281 -100.765625 141.632812 -91.300781 126.6875 -83.4375 C 111.738281 -75.570312 99.210938 -70.425781 89.109375 -68 C 79.015625 -65.570312 68.628906 -64.164062 57.953125 -63.78125 C 40.867188 -63 25.144531 -65.328125 10.78125 -70.765625 C -12.71875 -80.285156 -20.875 -98.441406 -13.6875 -125.234375 C -6.894531 -148.335938 6.882812 -166.394531 27.65625 -179.40625 C 48.4375 -192.414062 69.894531 -198.722656 92.03125 -198.328125 C 92.03125 -198.328125 92.222656 -198.328125 92.609375 -198.328125 C 98.242188 -198.722656 103.582031 -198.335938 108.625 -197.171875 C 117.175781 -194.054688 122.613281 -189.003906 124.9375 -182.015625 C 127.269531 -175.023438 125.71875 -167.257812 120.28125 -158.71875 C 107.851562 -139.882812 90.960938 -129.398438 69.609375 -127.265625 C 55.429688 -125.910156 41.742188 -126.59375 28.546875 -129.3125 C 26.015625 -129.695312 23.78125 -129.015625 21.84375 -127.265625 C 19.90625 -125.523438 18.738281 -123.390625 18.34375 -120.859375 C 14.457031 -104.160156 19.601562 -93.484375 33.78125 -88.828125 C 51.257812 -82.804688 69.414062 -82.804688 88.25 -88.828125 C 109.988281 -95.617188 130.660156 -108.429688 150.265625 -127.265625 C 169.878906 -146.097656 181.191406 -154.882812 184.203125 -153.625 C 187.210938 -152.363281 188.132812 -148.722656 186.96875 -142.703125 C 184.25 -133.191406 177.257812 -122.898438 166 -111.828125 Z M 41.9375 -158.71875 C 40.769531 -157.363281 39.941406 -155.859375 39.453125 -154.203125 C 38.972656 -152.554688 39.609375 -151.054688 41.359375 -149.703125 C 48.148438 -145.816406 55.523438 -144.40625 63.484375 -145.46875 C 71.453125 -146.539062 78.203125 -149.550781 83.734375 -154.5 C 89.265625 -159.445312 91.640625 -165.515625 90.859375 -172.703125 C 90.285156 -175.222656 88.925781 -176.820312 86.78125 -177.5 C 84.644531 -178.1875 82.507812 -178.335938 80.375 -177.953125 C 66.007812 -175.421875 53.195312 -169.007812 41.9375 -158.71875 Z M 41.9375 -158.71875 "/></g><g transform="translate(1055.524725, 1182.888959)"><path style="stroke:none;" d="M 149.109375 -462.484375 C 150.078125 -464.035156 152.164062 -465.34375 155.375 -466.40625 C 158.582031 -467.476562 161.882812 -468.253906 165.28125 -468.734375 C 168.675781 -469.222656 171.632812 -469.128906 174.15625 -468.453125 C 176.6875 -467.773438 177.753906 -466.5625 177.359375 -464.8125 C 175.222656 -455.882812 172.019531 -447.148438 167.75 -438.609375 C 167.363281 -437.441406 166.6875 -435.984375 165.71875 -434.234375 C 149.601562 -396.953125 133.195312 -359.960938 116.5 -323.265625 C 113.96875 -317.835938 111.632812 -312.5 109.5 -307.25 C 103.488281 -294.820312 96.015625 -279.679688 87.078125 -261.828125 C 77.179688 -242.992188 68.640625 -225.710938 61.453125 -209.984375 C 68.242188 -218.140625 76.785156 -224.109375 87.078125 -227.890625 C 97.367188 -231.679688 105.234375 -233.578125 110.671875 -233.578125 C 131.253906 -233.179688 142.613281 -222.984375 144.75 -202.984375 C 148.050781 -180.273438 143.972656 -157.171875 132.515625 -133.671875 C 121.054688 -110.179688 105.910156 -90.960938 87.078125 -76.015625 C 71.160156 -67.078125 56.066406 -63.140625 41.796875 -64.203125 C 27.523438 -65.273438 14.851562 -72.222656 3.78125 -85.046875 C 2.425781 -85.046875 1.019531 -84.410156 -0.4375 -83.140625 C -1.894531 -81.878906 -3.5 -80.378906 -5.25 -78.640625 C -7.382812 -76.109375 -9.710938 -74.164062 -12.234375 -72.8125 C -13.984375 -72.03125 -15.828125 -71.832031 -17.765625 -72.21875 C -19.703125 -72.613281 -21.253906 -73.195312 -22.421875 -73.96875 C -26.691406 -77.46875 -28.050781 -81.738281 -26.5 -86.78125 C -10.1875 -129.5 8.984375 -173.960938 31.015625 -220.171875 C 53.054688 -266.378906 75.140625 -311.425781 97.265625 -355.3125 C 106.585938 -374.914062 115.8125 -393.941406 124.9375 -412.390625 C 128.625 -419.578125 132.21875 -427.050781 135.71875 -434.8125 C 139.988281 -443.75 144.453125 -452.972656 149.109375 -462.484375 Z M 76.015625 -198.328125 C 61.066406 -187.648438 48.15625 -174.640625 37.28125 -159.296875 C 26.40625 -143.960938 22.519531 -127.753906 25.625 -110.671875 C 27.175781 -100.765625 31.15625 -93.769531 37.5625 -89.6875 C 43.976562 -85.613281 51.457031 -87.070312 60 -94.0625 C 68.539062 -102.03125 77.082031 -112.03125 85.625 -124.0625 C 94.164062 -136.101562 101.054688 -148.921875 106.296875 -162.515625 C 110.566406 -174.546875 113.140625 -185.023438 114.015625 -193.953125 C 114.890625 -202.890625 112.507812 -208.328125 106.875 -210.265625 C 101.25 -212.210938 90.960938 -208.234375 76.015625 -198.328125 Z M 76.015625 -198.328125 "/></g><g transform="translate(1216.868297, 1182.888959)"><path style="stroke:none;" d="M 46.3125 -69.015625 L 45.4375 -69.015625 C 17.28125 -69.410156 -1.257812 -75.675781 -10.1875 -87.8125 C -19.125 -99.945312 -18.738281 -116.109375 -9.03125 -136.296875 C -0.875 -151.640625 9.414062 -165.035156 21.84375 -176.484375 C 26.113281 -180.367188 30.476562 -183.472656 34.9375 -185.796875 C 39.40625 -188.128906 44.457031 -189.296875 50.09375 -189.296875 C 53.394531 -189.878906 57.179688 -189.300781 61.453125 -187.5625 C 62.804688 -187.164062 64.164062 -186.675781 65.53125 -186.09375 C 68.832031 -186.675781 72.035156 -187.742188 75.140625 -189.296875 C 75.910156 -189.878906 76.976562 -190.367188 78.34375 -190.765625 C 84.75 -193.285156 91.546875 -194.351562 98.734375 -193.96875 C 101.640625 -193.96875 104.644531 -193.96875 107.75 -193.96875 C 119.207031 -192.21875 127.847656 -187.410156 133.671875 -179.546875 C 139.503906 -171.679688 141.546875 -162.117188 139.796875 -150.859375 C 138.828125 -144.066406 136.691406 -137.660156 133.390625 -131.640625 C 111.054688 -91.640625 82.609375 -70.765625 48.046875 -69.015625 Z M 92.328125 -173.28125 C 76.984375 -173.863281 63.34375 -169.445312 51.40625 -160.03125 C 39.46875 -150.613281 30.582031 -139.789062 24.75 -127.5625 C 18.925781 -115.332031 17.320312 -105.285156 19.9375 -97.421875 C 22.5625 -89.554688 30.671875 -87.367188 44.265625 -90.859375 C 59.609375 -95.523438 73.148438 -104.265625 84.890625 -117.078125 C 96.640625 -129.890625 103.820312 -142.070312 106.4375 -153.625 C 109.0625 -165.175781 104.359375 -171.726562 92.328125 -173.28125 Z M 92.328125 -173.28125 "/></g><g transform="translate(1371.513489, 1182.888959)"><path style="stroke:none;" d="M 46.3125 -69.015625 L 45.4375 -69.015625 C 17.28125 -69.410156 -1.257812 -75.675781 -10.1875 -87.8125 C -19.125 -99.945312 -18.738281 -116.109375 -9.03125 -136.296875 C -0.875 -151.640625 9.414062 -165.035156 21.84375 -176.484375 C 26.113281 -180.367188 30.476562 -183.472656 34.9375 -185.796875 C 39.40625 -188.128906 44.457031 -189.296875 50.09375 -189.296875 C 53.394531 -189.878906 57.179688 -189.300781 61.453125 -187.5625 C 62.804688 -187.164062 64.164062 -186.675781 65.53125 -186.09375 C 68.832031 -186.675781 72.035156 -187.742188 75.140625 -189.296875 C 75.910156 -189.878906 76.976562 -190.367188 78.34375 -190.765625 C 84.75 -193.285156 91.546875 -194.351562 98.734375 -193.96875 C 101.640625 -193.96875 104.644531 -193.96875 107.75 -193.96875 C 119.207031 -192.21875 127.847656 -187.410156 133.671875 -179.546875 C 139.503906 -171.679688 141.546875 -162.117188 139.796875 -150.859375 C 138.828125 -144.066406 136.691406 -137.660156 133.390625 -131.640625 C 111.054688 -91.640625 82.609375 -70.765625 48.046875 -69.015625 Z M 92.328125 -173.28125 C 76.984375 -173.863281 63.34375 -169.445312 51.40625 -160.03125 C 39.46875 -150.613281 30.582031 -139.789062 24.75 -127.5625 C 18.925781 -115.332031 17.320312 -105.285156 19.9375 -97.421875 C 22.5625 -89.554688 30.671875 -87.367188 44.265625 -90.859375 C 59.609375 -95.523438 73.148438 -104.265625 84.890625 -117.078125 C 96.640625 -129.890625 103.820312 -142.070312 106.4375 -153.625 C 109.0625 -165.175781 104.359375 -171.726562 92.328125 -173.28125 Z M 92.328125 -173.28125 "/></g><g transform="translate(1526.158681, 1182.888959)"><path style="stroke:none;" d="M 225.703125 -148.53125 C 227.253906 -146.394531 227.640625 -144.257812 226.859375 -142.125 C 226.085938 -139.988281 224.632812 -138.046875 222.5 -136.296875 C 209.101562 -124.253906 194.15625 -114.644531 177.65625 -107.46875 C 149.3125 -94.257812 119.601562 -86.101562 88.53125 -83 C 64.070312 -80.476562 40.773438 -84.164062 18.640625 -94.0625 C 10.484375 -97.757812 4.460938 -95.820312 0.578125 -88.25 C -4.859375 -77.570312 -10.582031 -66.890625 -16.59375 -56.203125 C -19.507812 -50.191406 -22.71875 -43.976562 -26.21875 -37.5625 C -26.601562 -36.789062 -26.988281 -35.921875 -27.375 -34.953125 C -28.738281 -32.816406 -30.050781 -30.773438 -31.3125 -28.828125 C -32.570312 -26.890625 -34.753906 -25.53125 -37.859375 -24.75 C -39.410156 -24.363281 -41.0625 -24.171875 -42.8125 -24.171875 C -44.5625 -24.171875 -46.113281 -24.5625 -47.46875 -25.34375 C -48.632812 -26.3125 -49.65625 -27.617188 -50.53125 -29.265625 C -51.40625 -30.921875 -51.84375 -32.617188 -51.84375 -34.359375 C -50.476562 -39.992188 -48.535156 -45.53125 -46.015625 -50.96875 C -40.578125 -63.394531 -35.238281 -75.625 -30 -87.65625 C -16.789062 -118.332031 -2.90625 -148.625 11.65625 -178.53125 C 51.84375 -261.039062 90.085938 -344.332031 126.390625 -428.40625 C 129.304688 -436.5625 133.289062 -443.84375 138.34375 -450.25 C 142.21875 -454.90625 147.554688 -456.164062 154.359375 -454.03125 C 161.347656 -451.125 163.484375 -446.175781 160.765625 -439.1875 C 156.097656 -424.820312 151.050781 -410.359375 145.625 -395.796875 C 118.632812 -329.191406 89.117188 -263.851562 57.078125 -199.78125 C 50.285156 -186 47.859375 -177.3125 49.796875 -173.71875 C 51.742188 -170.125 56.304688 -169.832031 63.484375 -172.84375 C 70.671875 -175.851562 79.019531 -179.882812 88.53125 -184.9375 C 95.332031 -188.820312 102.128906 -192.21875 108.921875 -195.125 C 110.285156 -196.09375 111.546875 -196.773438 112.703125 -197.171875 C 120.859375 -201.828125 129.695312 -204.347656 139.21875 -204.734375 C 142.90625 -204.734375 145.617188 -203.082031 147.359375 -199.78125 C 148.335938 -197.644531 148.390625 -195.800781 147.515625 -194.25 C 146.640625 -192.695312 145.519531 -191.535156 144.15625 -190.765625 C 129.59375 -182.222656 114.835938 -174.066406 99.890625 -166.296875 C 92.710938 -162.992188 85.238281 -159.398438 77.46875 -155.515625 C 69.894531 -152.023438 62.421875 -148.335938 55.046875 -144.453125 C 49.992188 -141.535156 45.332031 -138.140625 41.0625 -134.265625 C 31.164062 -123.972656 32.234375 -115.425781 44.265625 -108.625 C 54.171875 -104.351562 64.125 -102.117188 74.125 -101.921875 C 84.125 -101.734375 94.070312 -102.898438 103.96875 -105.421875 C 134.644531 -112.222656 163.476562 -123.390625 190.46875 -138.921875 C 192.601562 -140.085938 194.738281 -141.15625 196.875 -142.125 C 201.925781 -145.425781 207.265625 -148.335938 212.890625 -150.859375 C 215.023438 -151.828125 217.351562 -152.210938 219.875 -152.015625 C 222.40625 -151.828125 224.347656 -150.664062 225.703125 -148.53125 Z M 225.703125 -148.53125 "/></g></g><path style="fill:none;stroke-width:1;stroke-linecap:round;stroke-linejoin:miter;stroke:rgb(0%,0%,0%);stroke-opacity:1;stroke-miterlimit:4;" d="M 0.500065 0.0000316306 L 36.789139 0.0000316306 " transform="matrix(22.50516,0.000000000000004574,-0.000000000000004573,22.498559,517.964707,1246.108663)"/><g style="fill:rgb(0%,0%,0%);fill-opacity:1;"><g transform="translate(585.414275, 1372.745378)"><path style="stroke:none;" d="M 39.6875 0 L 7.859375 0 L 7.859375 -57.125 L 39.6875 -57.125 L 39.6875 -51.21875 L 14.5 -51.21875 L 14.5 -32.8125 L 38.171875 -32.8125 L 38.171875 -26.953125 L 14.5 -26.953125 L 14.5 -5.9375 L 39.6875 -5.9375 Z M 39.6875 0 "/></g></g><g style="fill:rgb(0%,0%,0%);fill-opacity:1;"><g transform="translate(629.909385, 1372.745378)"><path style="stroke:none;" d="M 16.25 0 L 0 -42.828125 L 6.953125 -42.828125 L 16.171875 -17.421875 C 18.253906 -11.484375 19.476562 -7.628906 19.84375 -5.859375 L 20.15625 -5.859375 C 20.445312 -7.242188 21.351562 -10.101562 22.875 -14.4375 C 24.394531 -18.769531 27.8125 -28.234375 33.125 -42.828125 L 40.09375 -42.828125 L 23.828125 0 Z M 16.25 0 "/></g></g><g style="fill:rgb(0%,0%,0%);fill-opacity:1;"><g transform="translate(669.990143, 1372.745378)"><path style="stroke:none;" d="M 24.96875 0.78125 C 18.632812 0.78125 13.640625 -1.144531 9.984375 -5 C 6.328125 -8.851562 4.5 -14.207031 4.5 -21.0625 C 4.5 -27.957031 6.195312 -33.4375 9.59375 -37.5 C 12.988281 -41.570312 17.550781 -43.609375 23.28125 -43.609375 C 28.644531 -43.609375 32.890625 -41.84375 36.015625 -38.3125 C 39.148438 -34.78125 40.71875 -30.125 40.71875 -24.34375 L 40.71875 -20.234375 L 11.21875 -20.234375 C 11.34375 -15.210938 12.609375 -11.398438 15.015625 -8.796875 C 17.429688 -6.191406 20.828125 -4.890625 25.203125 -4.890625 C 29.804688 -4.890625 34.363281 -5.851562 38.875 -7.78125 L 38.875 -2 C 36.582031 -1.007812 34.410156 -0.300781 32.359375 0.125 C 30.316406 0.5625 27.851562 0.78125 24.96875 0.78125 Z M 23.203125 -38.171875 C 19.765625 -38.171875 17.023438 -37.050781 14.984375 -34.8125 C 12.941406 -32.570312 11.738281 -29.472656 11.375 -25.515625 L 33.75 -25.515625 C 33.75 -29.597656 32.835938 -32.726562 31.015625 -34.90625 C 29.191406 -37.082031 26.585938 -38.171875 23.203125 -38.171875 Z M 23.203125 -38.171875 "/></g></g><g style="fill:rgb(0%,0%,0%);fill-opacity:1;"><g transform="translate(714.875903, 1372.745378)"><path style="stroke:none;" d="M 26.40625 -43.609375 C 28.3125 -43.609375 30.019531 -43.453125 31.53125 -43.140625 L 30.625 -37.109375 C 28.851562 -37.503906 27.289062 -37.703125 25.9375 -37.703125 C 22.476562 -37.703125 19.515625 -36.296875 17.046875 -33.484375 C 14.585938 -30.671875 13.359375 -27.164062 13.359375 -22.96875 L 13.359375 0 L 6.875 0 L 6.875 -42.828125 L 12.234375 -42.828125 L 12.96875 -34.890625 L 13.28125 -34.890625 C 14.875 -37.671875 16.789062 -39.816406 19.03125 -41.328125 C 21.269531 -42.847656 23.726562 -43.609375 26.40625 -43.609375 Z M 26.40625 -43.609375 "/></g></g><g style="fill:rgb(0%,0%,0%);fill-opacity:1;"><g transform="translate(747.534298, 1372.745378)"><path style="stroke:none;" d="M 0.078125 -42.828125 L 7.03125 -42.828125 L 16.40625 -18.40625 C 18.46875 -12.832031 19.742188 -8.804688 20.234375 -6.328125 L 20.546875 -6.328125 C 20.890625 -7.660156 21.597656 -9.929688 22.671875 -13.140625 C 23.753906 -16.359375 27.289062 -26.253906 33.28125 -42.828125 L 40.25 -42.828125 L 21.84375 5.9375 C 20.019531 10.757812 17.890625 14.175781 15.453125 16.1875 C 13.015625 18.207031 10.023438 19.21875 6.484375 19.21875 C 4.503906 19.21875 2.550781 19 0.625 18.5625 L 0.625 13.359375 C 2.0625 13.671875 3.664062 13.828125 5.4375 13.828125 C 9.882812 13.828125 13.0625 11.328125 14.96875 6.328125 L 17.34375 0.234375 Z M 0.078125 -42.828125 "/></g></g><g style="fill:rgb(0%,0%,0%);fill-opacity:1;"><g transform="translate(787.849447, 1372.745378)"><path style="stroke:none;" d=""/></g></g><g style="fill:rgb(0%,0%,0%);fill-opacity:1;"><g transform="translate(808.632062, 1372.745378)"><path style="stroke:none;" d="M 34.5 -11.6875 C 34.5 -7.695312 33.015625 -4.617188 30.046875 -2.453125 C 27.078125 -0.296875 22.910156 0.78125 17.546875 0.78125 C 11.867188 0.78125 7.441406 -0.117188 4.265625 -1.921875 L 4.265625 -7.9375 C 6.316406 -6.894531 8.519531 -6.070312 10.875 -5.46875 C 13.238281 -4.875 15.515625 -4.578125 17.703125 -4.578125 C 21.085938 -4.578125 23.691406 -5.113281 25.515625 -6.1875 C 27.335938 -7.269531 28.25 -8.921875 28.25 -11.140625 C 28.25 -12.804688 27.523438 -14.226562 26.078125 -15.40625 C 24.628906 -16.59375 21.8125 -17.992188 17.625 -19.609375 C 13.632812 -21.097656 10.800781 -22.394531 9.125 -23.5 C 7.445312 -24.601562 6.195312 -25.859375 5.375 -27.265625 C 4.550781 -28.671875 4.140625 -30.351562 4.140625 -32.3125 C 4.140625 -35.800781 5.554688 -38.554688 8.390625 -40.578125 C 11.234375 -42.597656 15.128906 -43.609375 20.078125 -43.609375 C 24.691406 -43.609375 29.195312 -42.671875 33.59375 -40.796875 L 31.296875 -35.515625 C 26.992188 -37.285156 23.097656 -38.171875 19.609375 -38.171875 C 16.535156 -38.171875 14.21875 -37.6875 12.65625 -36.71875 C 11.09375 -35.757812 10.3125 -34.429688 10.3125 -32.734375 C 10.3125 -31.585938 10.601562 -30.609375 11.1875 -29.796875 C 11.78125 -28.992188 12.726562 -28.226562 14.03125 -27.5 C 15.332031 -26.769531 17.832031 -25.71875 21.53125 -24.34375 C 26.601562 -22.488281 30.03125 -20.625 31.8125 -18.75 C 33.601562 -16.875 34.5 -14.519531 34.5 -11.6875 Z M 34.5 -11.6875 "/></g></g><g style="fill:rgb(0%,0%,0%);fill-opacity:1;"><g transform="translate(846.798631, 1372.745378)"><path style="stroke:none;" d="M 20.703125 -4.578125 C 21.847656 -4.578125 22.953125 -4.660156 24.015625 -4.828125 C 25.085938 -4.992188 25.9375 -5.171875 26.5625 -5.359375 L 26.5625 -0.390625 C 25.863281 -0.046875 24.828125 0.234375 23.453125 0.453125 C 22.085938 0.671875 20.859375 0.78125 19.765625 0.78125 C 11.484375 0.78125 7.34375 -3.582031 7.34375 -12.3125 L 7.34375 -37.78125 L 1.21875 -37.78125 L 1.21875 -40.90625 L 7.34375 -43.609375 L 10.078125 -52.75 L 13.828125 -52.75 L 13.828125 -42.828125 L 26.25 -42.828125 L 26.25 -37.78125 L 13.828125 -37.78125 L 13.828125 -12.578125 C 13.828125 -10.003906 14.4375 -8.023438 15.65625 -6.640625 C 16.882812 -5.265625 18.566406 -4.578125 20.703125 -4.578125 Z M 20.703125 -4.578125 "/></g></g><g style="fill:rgb(0%,0%,0%);fill-opacity:1;"><g transform="translate(875.042674, 1372.745378)"><path style="stroke:none;" d="M 43.84375 -21.453125 C 43.84375 -14.472656 42.082031 -9.019531 38.5625 -5.09375 C 35.039062 -1.175781 30.179688 0.78125 23.984375 0.78125 C 20.160156 0.78125 16.765625 -0.113281 13.796875 -1.90625 C 10.828125 -3.707031 8.535156 -6.285156 6.921875 -9.640625 C 5.304688 -13.003906 4.5 -16.941406 4.5 -21.453125 C 4.5 -28.429688 6.242188 -33.867188 9.734375 -37.765625 C 13.222656 -41.660156 18.066406 -43.609375 24.265625 -43.609375 C 30.253906 -43.609375 35.015625 -41.613281 38.546875 -37.625 C 42.078125 -33.632812 43.84375 -28.242188 43.84375 -21.453125 Z M 11.21875 -21.453125 C 11.21875 -15.984375 12.3125 -11.816406 14.5 -8.953125 C 16.6875 -6.085938 19.898438 -4.65625 24.140625 -4.65625 C 28.390625 -4.65625 31.613281 -6.078125 33.8125 -8.921875 C 36.007812 -11.773438 37.109375 -15.953125 37.109375 -21.453125 C 37.109375 -26.890625 36.007812 -31.019531 33.8125 -33.84375 C 31.613281 -36.675781 28.363281 -38.09375 24.0625 -38.09375 C 19.820312 -38.09375 16.617188 -36.695312 14.453125 -33.90625 C 12.296875 -31.125 11.21875 -26.972656 11.21875 -21.453125 Z M 11.21875 -21.453125 "/></g></g><g style="fill:rgb(0%,0%,0%);fill-opacity:1;"><g transform="translate(923.366161, 1372.745378)"><path style="stroke:none;" d="M 26.40625 -43.609375 C 28.3125 -43.609375 30.019531 -43.453125 31.53125 -43.140625 L 30.625 -37.109375 C 28.851562 -37.503906 27.289062 -37.703125 25.9375 -37.703125 C 22.476562 -37.703125 19.515625 -36.296875 17.046875 -33.484375 C 14.585938 -30.671875 13.359375 -27.164062 13.359375 -22.96875 L 13.359375 0 L 6.875 0 L 6.875 -42.828125 L 12.234375 -42.828125 L 12.96875 -34.890625 L 13.28125 -34.890625 C 14.875 -37.671875 16.789062 -39.816406 19.03125 -41.328125 C 21.269531 -42.847656 23.726562 -43.609375 26.40625 -43.609375 Z M 26.40625 -43.609375 "/></g></g><g style="fill:rgb(0%,0%,0%);fill-opacity:1;"><g transform="translate(956.024556, 1372.745378)"><path style="stroke:none;" d="M 0.078125 -42.828125 L 7.03125 -42.828125 L 16.40625 -18.40625 C 18.46875 -12.832031 19.742188 -8.804688 20.234375 -6.328125 L 20.546875 -6.328125 C 20.890625 -7.660156 21.597656 -9.929688 22.671875 -13.140625 C 23.753906 -16.359375 27.289062 -26.253906 33.28125 -42.828125 L 40.25 -42.828125 L 21.84375 5.9375 C 20.019531 10.757812 17.890625 14.175781 15.453125 16.1875 C 13.015625 18.207031 10.023438 19.21875 6.484375 19.21875 C 4.503906 19.21875 2.550781 19 0.625 18.5625 L 0.625 13.359375 C 2.0625 13.671875 3.664062 13.828125 5.4375 13.828125 C 9.882812 13.828125 13.0625 11.328125 14.96875 6.328125 L 17.34375 0.234375 Z M 0.078125 -42.828125 "/></g></g><g style="fill:rgb(0%,0%,0%);fill-opacity:1;"><g transform="translate(996.339704, 1372.745378)"><path style="stroke:none;" d=""/></g></g><g style="fill:rgb(0%,0%,0%);fill-opacity:1;"><g transform="translate(1017.122319, 1372.745378)"><path style="stroke:none;" d="M 23.984375 0.78125 C 17.785156 0.78125 12.988281 -1.125 9.59375 -4.9375 C 6.195312 -8.757812 4.5 -14.160156 4.5 -21.140625 C 4.5 -28.296875 6.222656 -33.828125 9.671875 -37.734375 C 13.117188 -41.648438 18.035156 -43.609375 24.421875 -43.609375 C 26.472656 -43.609375 28.523438 -43.382812 30.578125 -42.9375 C 32.640625 -42.5 34.257812 -41.976562 35.4375 -41.375 L 33.4375 -35.859375 C 32.007812 -36.429688 30.445312 -36.90625 28.75 -37.28125 C 27.0625 -37.664062 25.566406 -37.859375 24.265625 -37.859375 C 15.566406 -37.859375 11.21875 -32.3125 11.21875 -21.21875 C 11.21875 -15.957031 12.273438 -11.921875 14.390625 -9.109375 C 16.515625 -6.296875 19.660156 -4.890625 23.828125 -4.890625 C 27.398438 -4.890625 31.0625 -5.65625 34.8125 -7.1875 L 34.8125 -1.453125 C 31.945312 0.0351562 28.335938 0.78125 23.984375 0.78125 Z M 23.984375 0.78125 "/></g></g><g style="fill:rgb(0%,0%,0%);fill-opacity:1;"><g transform="translate(1055.210759, 1372.745378)"><path style="stroke:none;" d="M 43.84375 -21.453125 C 43.84375 -14.472656 42.082031 -9.019531 38.5625 -5.09375 C 35.039062 -1.175781 30.179688 0.78125 23.984375 0.78125 C 20.160156 0.78125 16.765625 -0.113281 13.796875 -1.90625 C 10.828125 -3.707031 8.535156 -6.285156 6.921875 -9.640625 C 5.304688 -13.003906 4.5 -16.941406 4.5 -21.453125 C 4.5 -28.429688 6.242188 -33.867188 9.734375 -37.765625 C 13.222656 -41.660156 18.066406 -43.609375 24.265625 -43.609375 C 30.253906 -43.609375 35.015625 -41.613281 38.546875 -37.625 C 42.078125 -33.632812 43.84375 -28.242188 43.84375 -21.453125 Z M 11.21875 -21.453125 C 11.21875 -15.984375 12.3125 -11.816406 14.5 -8.953125 C 16.6875 -6.085938 19.898438 -4.65625 24.140625 -4.65625 C 28.390625 -4.65625 31.613281 -6.078125 33.8125 -8.921875 C 36.007812 -11.773438 37.109375 -15.953125 37.109375 -21.453125 C 37.109375 -26.890625 36.007812 -31.019531 33.8125 -33.84375 C 31.613281 -36.675781 28.363281 -38.09375 24.0625 -38.09375 C 19.820312 -38.09375 16.617188 -36.695312 14.453125 -33.90625 C 12.296875 -31.125 11.21875 -26.972656 11.21875 -21.453125 Z M 11.21875 -21.453125 "/></g></g><g style="fill:rgb(0%,0%,0%);fill-opacity:1;"><g transform="translate(1103.534245, 1372.745378)"><path style="stroke:none;" d="M 12.96875 -42.828125 L 12.96875 -15.046875 C 12.96875 -11.554688 13.757812 -8.953125 15.34375 -7.234375 C 16.9375 -5.515625 19.425781 -4.65625 22.8125 -4.65625 C 27.289062 -4.65625 30.566406 -5.878906 32.640625 -8.328125 C 34.710938 -10.773438 35.75 -14.769531 35.75 -20.3125 L 35.75 -42.828125 L 42.234375 -42.828125 L 42.234375 0 L 36.875 0 L 35.9375 -5.75 L 35.59375 -5.75 C 34.257812 -3.632812 32.414062 -2.015625 30.0625 -0.890625 C 27.707031 0.222656 25.019531 0.78125 22 0.78125 C 16.789062 0.78125 12.890625 -0.453125 10.296875 -2.921875 C 7.703125 -5.398438 6.40625 -9.363281 6.40625 -14.8125 L 6.40625 -42.828125 Z M 12.96875 -42.828125 "/></g></g><g style="fill:rgb(0%,0%,0%);fill-opacity:1;"><g transform="translate(1152.639033, 1372.745378)"><path style="stroke:none;" d="M 36.171875 0 L 36.171875 -27.703125 C 36.171875 -31.191406 35.375 -33.796875 33.78125 -35.515625 C 32.195312 -37.234375 29.710938 -38.09375 26.328125 -38.09375 C 21.847656 -38.09375 18.566406 -36.878906 16.484375 -34.453125 C 14.398438 -32.035156 13.359375 -28.039062 13.359375 -22.46875 L 13.359375 0 L 6.875 0 L 6.875 -42.828125 L 12.15625 -42.828125 L 13.203125 -36.953125 L 13.515625 -36.953125 C 14.847656 -39.066406 16.710938 -40.703125 19.109375 -41.859375 C 21.503906 -43.023438 24.171875 -43.609375 27.109375 -43.609375 C 32.265625 -43.609375 36.144531 -42.363281 38.75 -39.875 C 41.363281 -37.382812 42.671875 -33.40625 42.671875 -27.9375 L 42.671875 0 Z M 36.171875 0 "/></g></g><g style="fill:rgb(0%,0%,0%);fill-opacity:1;"><g transform="translate(1201.743821, 1372.745378)"><path style="stroke:none;" d="M 20.703125 -4.578125 C 21.847656 -4.578125 22.953125 -4.660156 24.015625 -4.828125 C 25.085938 -4.992188 25.9375 -5.171875 26.5625 -5.359375 L 26.5625 -0.390625 C 25.863281 -0.046875 24.828125 0.234375 23.453125 0.453125 C 22.085938 0.671875 20.859375 0.78125 19.765625 0.78125 C 11.484375 0.78125 7.34375 -3.582031 7.34375 -12.3125 L 7.34375 -37.78125 L 1.21875 -37.78125 L 1.21875 -40.90625 L 7.34375 -43.609375 L 10.078125 -52.75 L 13.828125 -52.75 L 13.828125 -42.828125 L 26.25 -42.828125 L 26.25 -37.78125 L 13.828125 -37.78125 L 13.828125 -12.578125 C 13.828125 -10.003906 14.4375 -8.023438 15.65625 -6.640625 C 16.882812 -5.265625 18.566406 -4.578125 20.703125 -4.578125 Z M 20.703125 -4.578125 "/></g></g><g style="fill:rgb(0%,0%,0%);fill-opacity:1;"><g transform="translate(1229.987864, 1372.745378)"><path style="stroke:none;" d="M 34.5 -11.6875 C 34.5 -7.695312 33.015625 -4.617188 30.046875 -2.453125 C 27.078125 -0.296875 22.910156 0.78125 17.546875 0.78125 C 11.867188 0.78125 7.441406 -0.117188 4.265625 -1.921875 L 4.265625 -7.9375 C 6.316406 -6.894531 8.519531 -6.070312 10.875 -5.46875 C 13.238281 -4.875 15.515625 -4.578125 17.703125 -4.578125 C 21.085938 -4.578125 23.691406 -5.113281 25.515625 -6.1875 C 27.335938 -7.269531 28.25 -8.921875 28.25 -11.140625 C 28.25 -12.804688 27.523438 -14.226562 26.078125 -15.40625 C 24.628906 -16.59375 21.8125 -17.992188 17.625 -19.609375 C 13.632812 -21.097656 10.800781 -22.394531 9.125 -23.5 C 7.445312 -24.601562 6.195312 -25.859375 5.375 -27.265625 C 4.550781 -28.671875 4.140625 -30.351562 4.140625 -32.3125 C 4.140625 -35.800781 5.554688 -38.554688 8.390625 -40.578125 C 11.234375 -42.597656 15.128906 -43.609375 20.078125 -43.609375 C 24.691406 -43.609375 29.195312 -42.671875 33.59375 -40.796875 L 31.296875 -35.515625 C 26.992188 -37.285156 23.097656 -38.171875 19.609375 -38.171875 C 16.535156 -38.171875 14.21875 -37.6875 12.65625 -36.71875 C 11.09375 -35.757812 10.3125 -34.429688 10.3125 -32.734375 C 10.3125 -31.585938 10.601562 -30.609375 11.1875 -29.796875 C 11.78125 -28.992188 12.726562 -28.226562 14.03125 -27.5 C 15.332031 -26.769531 17.832031 -25.71875 21.53125 -24.34375 C 26.601562 -22.488281 30.03125 -20.625 31.8125 -18.75 C 33.601562 -16.875 34.5 -14.519531 34.5 -11.6875 Z M 34.5 -11.6875 "/></g></g><g style="fill:rgb(0%,0%,0%);fill-opacity:1;"><g transform="translate(1268.154433, 1372.745378)"><path style="stroke:none;" d="M 5.9375 -4.140625 C 5.9375 -5.890625 6.332031 -7.210938 7.125 -8.109375 C 7.925781 -9.003906 9.066406 -9.453125 10.546875 -9.453125 C 12.054688 -9.453125 13.234375 -9.003906 14.078125 -8.109375 C 14.929688 -7.210938 15.359375 -5.890625 15.359375 -4.140625 C 15.359375 -2.453125 14.925781 -1.148438 14.0625 -0.234375 C 13.207031 0.679688 12.035156 1.140625 10.546875 1.140625 C 9.222656 1.140625 8.125 0.726562 7.25 -0.09375 C 6.375 -0.914062 5.9375 -2.265625 5.9375 -4.140625 Z M 5.9375 -4.140625 "/></g></g></g></svg>